<?xml version="1.0" encoding="UTF-8"?>
<svg width="1600px" height="1200px" viewBox="0 0 1600 1200" version="1.1" xmlns="http://www.w3.org/2000/svg" xmlns:xlink="http://www.w3.org/1999/xlink">
    <!-- Generator: Sketch 51.3 (57544) - http://www.bohemiancoding.com/sketch -->
    <title>Custom Preset</title>
    <desc>Created with Sketch.</desc>
    <defs></defs>
    <g id="Custom-Preset" stroke="none" stroke-width="1" fill="none" fill-rule="evenodd">
        <g id="Alienation" transform="translate(300.000000, 523.000000)" fill="white" fill-rule="nonzero">
<path d="M450.7-40.5L450.7-40.5L450.7-40.5L450.7-40.5z"/>
		<path d="M649.4,78.2c0.9-11.7,0.5-13.2-10.9-15.5c-3.7-0.7-4.9-2.4-4.6-5.8c0.5-6.3,1.1-12.3,1.5-18.8
			c1.3-19.3-1.4-37.7-13.6-53.5c-1.7-2.1-1.9-5-0.5-7.2c3.1-7.6,9-13.6,12-21.3c6.7-18.1,10.6-37.2,11.6-56.5
			c0.6-6.5,0.3-13.1-1.1-19.5c-0.8-3.6-2.7-6.8-6.7-6.7c-4,0.1-5,4.4-5.1,7.2c-0.4,7-1.6,13.9-3.7,20.6c-5,18.8-12,36.5-25.5,51
			c-6.9,7.4-6.9,7.2-15.6,2.3c-28.3-16.5-61.7-22.1-93.8-15.8c-7.8,1.9-15.4,4.6-22.7,7.9c-7.4,2.9-14.2,7.2-19.8,12.8
			c2.3,0.5,4.7,0.2,6.8-1.1c0.6,5.1,2.8,3.6,4.8,1c3.5-4.7,8.1-8.6,13.4-11.2c4.3-2.1,9-3,13.8-2.5c1.3,0.3,2.6,0,3.6-0.7
			c2.7-1.9,4.9-1.7,6.3,1.7c1.4,3.4,3.8,3.2,5.7,0.8c2.6-3.3,4.7-2.8,6.6,0.5c2.6,3.8,6.1,6.9,10.3,8.8c9,4.9,18.5,9,27.6,13.9
			c9.5,4.3,17,12.1,20.9,21.8c0,0.5,0.5,1.3,0.3,1.6c-5,8.9,2.3,17.1,1.3,26.1c-0.5,9.4,1,18.7,4.5,27.4c2.3,6.6,1.8,13.9,4.9,20.6
			c1.4,3.6,3.7,6.7,6.7,9c4,2.1,6.5,6.2,6.6,10.7c0,2.1,1.7,2.9,3.7,2.3c1.6-0.6,3.5-0.1,4.5,1.4c2.4,2.6,4.1,2.3,4.6-1.6
			c0.2-1.8,0-3.9,2.4-5.2c3.1,4.1,7.9,7.2,3.3,13.3c-1.7,2.3-0.5,4.1,2.4,4.1c2.9,0,4.9,0,7.4,0c1.7,0.2,3.3-0.9,3.5-2.6
			c0-0.3,0-0.6,0-0.9c0.4-3.6,2.2-7,5-9.3c1-1.1,1.7-2.2,3.2-1.2c1.2,0.8,1.5,2.4,0.8,3.6c-0.9,4.2-2.7,8.1-5.2,11.5
			c2.2,2,3.7-0.6,5.7,0.4c-1.4,4.1-3.7,6.7-8.6,5.3c-3.4-1-5.3,0-6.3,3.7c-0.8,2.3-2,4.5-3.5,6.5c-4.5,7.3-3.3,11.4,4.4,14.8
			c1,0.5,1.8,1.3,2.2,2.4c-1.9,0.2-3.7,0.4-5.6,0.7c-3.6,0.4-6.3,3.6-5.9,7.3c0.1,0.8,0.3,1.7,0.7,2.4c1.4,2.1,1.2,4.9-0.3,6.8
			c-3.4,4.9-3.8,11.1-7.6,15.7c-0.2,0.3-0.4,0.7-0.4,1c1.6,9.5-4.5,16.5-7.9,24.3c-1.1,3.2-3.2,6-6,7.9c-2.5,1.6-1.9,4.7-2.1,7.5
			c7.7,1.4,8-9.9,16.5-9.2c-4.8,6.3-10.3,12-16.5,16.9c-2.4,3.2-5.8,5.6-9.7,6.6c0-1,0-3.2-1-2.5c-2.3,1.5-5.7-2.1-7,1.9
			c-3.7,10.9-14,14.6-22.7,19.6c-3,1.7-7.8,0.7-11.7,0c-2.8-0.4-1.2-2.6-0.5-4.1c4.1-8.6,8.2-17.1,12.3-25.6c0.5-1,0.9-2.1,1.7-4.1
			c-4.1,2.4-7.3,6-9.1,10.4c-1.7,3-3,6.2-4.9,9c-4.1,7.4-13.1,10.4-20.8,7c-5.5-1.9-10.7-5.2-17-3.5c-1.3,0.4-2.2-0.9-3.2-1.8
			c-4.2-4.1-10.3-5.4-15.8-3.4c-7.9,2.9-13.7-1.1-13.2-9.5c0-2.2-2.1-6.6,1.9-6.5c4,0.1,1.9,4.6,1.5,6.8c-0.7,4.4,0.4,5.8,4.9,5.1
			c10.9-1.2,21.9,0.5,31.8,5.1c3.8,1.3,7.7,2.2,11.6,2.8c6.9,1.8,14.2-1.2,17.8-7.3c8.2-12.7,18.7-23.6,27.3-35.8
			c3.7-5.3,8-10.7,7.8-18c-0.3-11.7-7.1-16.9-18.2-13c-4.3,1.1-8.2,3.3-11.3,6.4c-11.2,13.7-27.6,16.5-43,21.9
			c-2.9,0.5-5.8,1.6-8.2,3.3c2.9,1.7,5.1,4.4,6.2,7.6c0.6,2.9,2.5,2.4,4.1,0.6c1.1-1,2-2.3,2.6-3.7c0.7-2.6,1.9-4.1,4.7-3.7
			c2.8,0.5,5.5,3.1,5,5.4c-1.9,7.9,3.4,8.2,8.6,9.4c0.5,0.2,1.1,0.4,1.5,0.7c0,0,0,0.3,0.6,0.9c-5.6,3.5-3.8,10-5.7,15.5
			c-2.8-1.2-2.5-3.2-2.3-5.3c0.4-2.3,0.6-4.5,0.7-6.8c0-1.2,0-3-1.7-3.1c-1.7-0.1-4.1-0.3-4.1,1.9c0,3-2.2,3.8-4.1,4.8
			c-1.7,0.5-2.9,2-3,3.7c0,1.2,1.1,3.4-1.6,3.5c-1.6,0.1-3.1-0.9-3.5-2.5c-1.9-6-7.1-10.4-7.8-16.7c-0.5-4.4-5.7-5.3-6.2-10.8
			c-1.5,3.4-4.1,4.5-4.5,7.7s-3.6,2.5-5.8,2.8c-0.4,0-1.4-1-1.4-1.6c0-2.1,1.3,0.3,1.8-0.3c2-2.7,0.8-4.1-1.6-5.9
			c-3.5-1.8-5.8-5.2-6.2-9c0-2.5,2.1-2.8,2.1-4.9c0.6,3,2.3,4.1,5.1,3.7c2.9-0.5,2.4-2.6,2.5-4.9c0.2-3.8,0.8-7.6,1.8-11.2
			c0.8-3,1.4-6.3,5.5-7.2c1.9-0.6,3.3-2.2,3.6-4.1c-1.6-1.2-2.8,0.9-4.1,0.5c-3.8,4.7-10.7,5.5-15.4,1.7c-1.1-0.8-1.9-1.9-2.6-3
			c-1.3-1.9-2.4-3.9-3.6-5.8l0,0c-4.1-4.1-9.2-4.1-14.2-3.4c-5.1,1.1-10.3-0.6-13.7-4.6c-3.1-3.8-3.4-15.4-0.2-19.1
			c0.9-1,1.9-2.1,1.2-3.5c-0.7-1.1-2.2-1.5-3.3-0.8c-0.1,0.1-0.2,0.1-0.3,0.2c-2.1,1.2-3.5,0-5.2-0.7c-3.7-1.9-5.8,0-6.9,3.6
			c-2.1,7.8,1.1,12.6,6.9,17.3c3.8,2.7,5.8,7.2,5.4,11.8l0,0c-0.6-1.4-1.5-3-3-1.5c-1.6,1.5,0.4,2.1,1.4,2.8l0,0l5.3,4.9
			c-3.9,0.5-7.7,1.6-11.2,3.5c-0.8-4.1-3.1-7.7-0.4-11.5c1.8-2.5,0-4.1-1.6-5.3c-4-3.3-7.5-7.1-10.5-11.3
			c-4.1-4.8-2.9-10.7-1.7-16.5c0.3-1.1,0.8-2.2,1.2-3.2c0.8-2.3,1-5.4,3.7-6c2.7-0.6,3.7,2.5,5.1,4.4s5,2,7.3,1.7
			c7.8-0.5,15.5,1.3,22.2,5.3c1.8,0.8,3.7,1.2,3.2,4.1c-2.4,1.2-7.3-3.5-7.6,3.1c0,2.3,0,3.3,2.8,2.3c3.8-1.5,8.2-1,11.6-4.1
			c1.1-1.2,2.9-1.3,4.1-0.2c-0.6,1.6-1.6,3.1-2.8,4.4c-1.1,1.3-1,3.2,0.3,4.3c0.1,0.1,0.2,0.1,0.2,0.2c1.2,0.9,2.4-0.5,3.2-1.6
			c4.1-4.9,7.6-10.2,10.4-16c2-6.7,3.2-13.6,3.4-20.6c0.5-6.7,0.6-13.5,0.3-20.2c0-5-4.1-9-4.1-14.3c0.4-3,0-6.1-1.2-8.9
			c-3.2,1.5-2.7,4.7-4.1,6.7c-0.9,0.6-2,0.4-2.6-0.5c-4.5-4.6-4.4-4.6-8,1.2c-2.7,4.5-5.6,8.8-8.8,12.9c-1.5,1.8-3.5,3.1-5.8,3.8
			c-10.1,3.5-20.9,4.6-31.5,3.3c-4.1-0.6-4.9-2.9-3.2-5.9c3.6-7.2,5.2-15.2,4.6-23.3c-0.1-1.9,0.4-3.8,1.4-5.4
			c0.3-0.5,3.5-3.3-1.2-2.8c-1.2,0-0.4-3,0.7-3.5c2.1-0.9,5.2-0.9,2.3-4.1c4.1-3.2,2.7-7.9,3-12c0.3-4.1,1.7-8.1,4.1-11.4
			c2.5-4.2,4.5-8.6,5.8-13.3v-0.5c7.2-3.2,4.8-10.6,7-16c1.5-3.7,0.5-8.6,4.8-11.1c3.4-1.8,7.2-3.2,8.6-7.3
			c-3.7,1.1-6.9,3.4-9.2,6.5c-1.4,0.6-2.7,1.3-3.9,2.2c-2.4,2.7-6.5,2.9-9.2,0.5c0,0,0,0,0,0c-9.5-6-18.4-12.8-26.5-20.6
			c-5-4.4-9.7-9.2-13.8-14.4c-11.2-14.7-21.1-30.4-29.7-46.8c-1.1-2.1-2-5.1-5.3-4.1s-2.9,3.8-2.5,6.3c0.8,5.6,2.2,11.1,4.1,16.5
			c6.3,20,15.7,39,27.8,56.2c8.6,11.5,18.1,22.2,28.4,32.1c2,1.9,3.8,3.8,2.8,6.9c-5.3,15.1-4.5,30.4-2.2,45.8
			c1.4,7,0.4,14.2-2.8,20.6c-0.9,2.4-3.2,3.9-5.8,3.7c-3.3-0.4-6.4,1.9-6.8,5.3c-0.1,0.5-0.1,1,0,1.4c0,8.2-0.7,17.1,3.5,24.7
			c3.6,7.4,4.9,15.7,3.8,23.8c-0.5,7.4-2.5,14.7-0.8,22.2c0.3,5.4,5,9.5,10.4,9.2c0,0,0,0,0,0c7.8,0,8.2,0,7.8,8.2
			c-0.7,10.2,2.1,20.3,8,28.5c3.6,6,6.3,12.5,8.2,19.3c4,13.1,7,26.4,9.1,39.9c3.5,19.4,10.9,25.1,29.2,26.6
			c8.2,0.7,16.8-0.2,25.2,0c11.4,0.5,20.6-4.6,29.2-11.2c9.3-7.2,18-15.1,27.6-21.9c18.2-12.2,35.7-25.5,52.4-39.7
			c6.3-5.4,9.9-13.4,9.8-21.8c0-4.9-0.5-9.9-0.8-14.8c-0.6-3.7,0.7-7.4,3.5-9.9c2.8-2.3,5.6-4.5,8.6-6.5
			c11.2-7.3,13.1-11.9,9.2-24.7c-2.6-7.7-2.1-16.1,1.6-23.4C645.9,97.7,648.7,88.1,649.4,78.2z M573.8-14.8
			c-4.4-3.7-8-8.2-10.9-13.2l0,0c2,1.4,4.1,3,6,4.3c1.9,1.3,3,3,5.1,1.5C572.7-19.8,575.4-17.5,573.8-14.8z M575.9,1.4L575.9,1.4
			c0.9,1.9,1,4.2,0.2,6.2C574,5.5,575.3,3.5,575.9,1.4z M577.5,27.3L577.5,27.3c-0.7-4.1-2.9-8.4-0.6-13
			C578.2,18.5,578.4,23,577.5,27.3z M574.4-22.1c0.9-2.9,1.7-6.1,6.9-3.8c-3.1,0.5-1.4,7.3-6.9,3.6V-22.1z M584.8,61.7L584.8,61.7
			c3,2.7,6.8,4.7,7.6,9.4c-4.4-1.1-7.5-5-7.6-9.6V61.7z M597.5,61c-8-1.4-15.9-15.4-15.6-28c2.5,2.1,1.4,5.7,4.1,7.2
			c1.9-1.2-0.2-2.8,0.3-4.1c0.6-1.3,1.7-4.9,4.1-1.2c6.2,3.5,3.3,9.9,3.9,14.8c0.2,2.5-0.5,4.7,1.7,6.7
			C597.4,57.4,598,59.2,597.5,61z M530.1,212.7c2.6,1.9,1.6,3.7,0,5.6V212.7z M526.8,186.2L526.8,186.2c1.2,1,1.7,1.2,1.7,1.5
			c0.5,2.8,1.4,5.6-0.4,8.2c-0.4,0.5-1.2,0.6-1.7,0.2c0,0,0,0,0,0c-0.1-0.1-0.2-0.2-0.3-0.3C524.1,192.6,525.3,189.8,526.8,186.2z
			 M484.1,204.9c0.3-1.2,1.3-2,2.5-1.9c0.9,0,1.4,0.7,0.9,1.6s-0.9,2.2-1.2,2.1C484.1,206.4,483.9,205.7,484.1,204.9z M482.4,213.7
			c0.3-2.9,2.1-3.2,5-2.3c-1.6,1.7-0.3,4.9-3.5,5.1C482.9,216.5,482.3,214.8,482.4,213.7z M447.1,82.1c1.3-0.8,2-1.4,2.8-1.8
			c6.5-3.8,7.5-3.4,10.1,3.6c0.6,2.2,1.9,4.1,3.6,5.6c3,2.3,2.6,5.3-0.7,7.4c-4.9,3.5-10.5,5.8-16.5,6.5
			C452.1,96.3,457.4,89.3,447.1,82.1z M420.7,85.9c3,3.4,1.2,7.6,2.6,11.2C419.2,94.1,419.9,90,420.7,85.9z M407.3-24.4
			c-3.1-1.7-2.1-5.7-4.6-7.9c-9.9-7.9-17.8-18-22.9-29.6c2-0.3,4.1,0.7,5,2.5c2.2,6.3,9,7.7,12.6,12.3c1.6,2.1,4.5,3.3,4.1,7
			c-0.2,1.9,2.1,2.7,3.4,3.5c5.8,3.8,10.3,9.2,16.1,13.1c3,2.1,4.4,6.5,9.7,6.3c-2.5,4-5.5,7.7-9,10.9c0.5-4.6,0.3-7.4-3.8-10
			S411.3-22.2,407.3-24.4z M407.3,78.4c9.3,3.4,6.6,13,10.3,19.2c-2.7-0.2-3,0-3.7-2.8c-1.1-4.7-3.4-9.1-6.7-12.6
			c-1.6-1.3-1.1-2.5-0.1-3.7L407.3,78.4z M463.2,192c2.5,1.2,4.6,3.2,6,5.6c0.9,1.5,2,2.9,1.1,4.7c-0.5,1.1-1.8,1.6-2.9,1.2
			c-1.9-0.6-4.4-0.7-4.9-3.2C461.5,197.5,461.8,194.5,463.2,192z M459.8,216c0.2-0.5,0.4-0.9,0.7-1.4c1.3,3.2,2.8,7-1.4,8.2
			c-3.1,1.2-6.6-0.3-7.8-3.4c-0.2-0.6-0.4-1.2-0.4-1.8c-0.4-3.2-1.4-6.3-2.8-9.3c-0.6-0.9-1.1-2.2,0-3.1c1.1-0.9,2.4,0,3.6,0.6
			c2,1.2,3.2,3.4,3.2,5.7c0.1,1.5,0.4,3,0.7,4.5c0.4,1.4,0.6,3.5,2.4,3.4C459.9,219.5,459.5,217.2,459.8,216z M457,194.5
			c-2.1-1.4-4.4-2.6-6.7-3.7C453.3,190.3,457.7,187.2,457,194.5z M432.3,194.8c-6.7-6.2-10.1-15.2-9.1-24.2c3,6.1,6.4,10.4,7.5,15.9
			c0.2,2.5,1.6,4.7,3.8,5.8c0,1.6,2.5,0.7,2.9,2.3c-1.6,1.4-3.3,2.1-4.9,0.2H432.3z M434.6,192.2c-1.2-5.7-2.3-11.4-3.4-17.1
			c-1.6-3.8-0.4-8.3,2.8-10.9c0,7.8,4.8,13.4,5.5,20.2c0.5,3.7-0.4,6.9-4.7,7.8H434.6z M442.6,151.4c2.2-0.6,3,1.4,3.8,3.5
			c1.8,5.8,4.2,11.5,7.2,16.9c1,1.5,0.6,3.6-0.9,4.6c-0.2,0.1-0.3,0.2-0.5,0.3c-2.5,1.3-2.3,3-1.3,5.6c-5.5-1.2-7.5-4.1-7.1-8.8
			c0.2-5.7-0.8-11.4-2.9-16.8C440.1,154.2,440.3,152,442.6,151.4z M445.9,231.6c-2.6-2.6-3.9-6.1-3.7-9.7c0-1.5,0.4-3.4,2.5-3
			c3.5,0.8,0,2,0,3c0,3.1,1.9,6.4,7,10C449.1,234.3,447.4,233,445.9,231.6z M454.7,245.5c-4.7-2-3.7-6.7-5.4-9.8
			c2.1,2.8,6.2,4.7,5.3,9.8H454.7z M497.3,271.8c-7.2-2.7-15.1-3.6-22-7.4c-5.6-3-8.9,2.1-13,4.1c-2,0.9-3.6,3.4-6,1.6
			c-2.4-1.8-5.2-3.5-3.8-7.6c0.2-0.9,0.3-1.9,0.3-2.8c0.6-2.3-1.7-6.3,0.9-6.7c3.5-0.1,6.8,1.4,9,4.1c3.5,3.8,6.3,3.4,8.2-1.4
			c1.6-3.9,3.3-7.7,4.7-11.6c2.1-5.8,6.1-5.7,10.5-4.6c6.3,1.2,12.4,3.1,18.2,5.8l0,0c0.8,2.1,2.2,1.7,4.1,1.7c2.9,0,6-1.9,9.4,1
			c-3,0.6-5.3,3.1-5.6,6.1c-0.5,3.7-3.8,3.9-6.3,3.5c-5.8-0.1-11.3-2.1-15.8-5.8c-1.5-1.7-3.6-2.8-5.9-3.1c-1.6,0-3.6-0.9-4.6,1.2
			s0.4,3.2,1.5,4.6c8.7,10.7,23.5,14.1,36,8.2c3.2-2.1,6.9-3.3,10.7-3.4c-5.2,8.6-16,18.1-30.8,12.6H497.3z M625.9,122.6
			c0.9,1.1,2.6,1.7,2.1,3.4c0,0.5-1.8,1.1-2.3,0.9C622.8,125.4,625.8,124,625.9,122.6z M623.4,146.3c-1.2,0-2.4,0-2.4-1.5
			c0-1.5,1.3-2.1,2.8-2c1.4,0.1,2.5,0,2.5,1.4S624.6,146,623.4,146.3L623.4,146.3z M628.9,134.5L628.9,134.5L628.9,134.5
			c0,0.3-1.1,0.5-1.2,0.4c-0.3-0.4-0.5-0.9-0.5-1.4c0-0.5,0.4-0.9,1.2-0.7C629,133.2,629.2,133.9,628.9,134.5L628.9,134.5z
			 M639.8,72.5L639.8,72.5c-9.4-0.7-15,4.8-20.6,12.7c0-9.2,6.6-12.7,11.4-17.2c2.7-2.5,6.5,0,9.8-1c1.2-0.3,1.5,1.4,1.3,2.6
			C641.5,70.8,641.5,72.5,639.8,72.5L639.8,72.5z"/>
		<path d="M582.9,93c-2.4-1.7-5.8-1.1-7.5,1.3c0,0,0,0.1-0.1,0.1c-1.5,2.1-4.3,2.8-6.7,1.7c-2.5-1.4-0.7-3.8-0.3-5.7
			c0.4-3.8,2-7.3,4.5-10.1c1.6-1.2,2-3.5,0.8-5.2c-0.8-1.2-2.3-1.7-3.7-1.4c-8.2,0.7-16.5-1.1-24.7-0.7
			c-21.7,1.2-42.2-1.4-57.3-19.9c-1.8-2.9-5.6-3.8-8.5-2.1c-0.2,0.1-0.5,0.3-0.7,0.5c7.4,4.1,10.2,10.8,12.3,17.8
			c0.4,1.1,4.1,0,1.9,2.8c-1.4,2.5-1.7,5.5-0.7,8.2c-0.6,0.5-1.3,1-0.5,1.7s1.2,0,1.5-0.8c1.7,6.1-0.5,12.9,3.7,18.9
			c-1.8,0.7-4.6-0.9-4.6,2.3c0,1-1,2.5,0.5,3c5.5,1.9,8.2,7.1,11.1,11s5.3,3.8,9,2.1c8.2-4.4,16.9-7.8,25.9-10
			c14.9-2.5,29.5-6.4,43.7-11.7c0.9-0.3,1.9-0.6,1.9-1.8S583.7,93.5,582.9,93z M542.3,96.9c-3.9,2.7-8.5,4.3-13.2,4.4
			c-2.9,0-3.5-1.7-1.6-3.6l0,0c4.3-4.5,5.7-11,3.6-16.9c4.8,0,7.7,3,11.4,3.7C546.2,85.4,545.7,94.4,542.3,96.9z M561.1,87.3
			c-0.3,5-3.5,9.4-8.2,11c1-4.6,1.8-8.2,2.7-12.3l0,0c0.4-1.6,1.2-2.9,3-2.6c1.7,0.2,2.9,1.8,2.6,3.5
			C561.2,87,561.1,87.2,561.1,87.3z"/>
		<path d="M571.5,184.3c-3.9,5.6-7.1,11.7-9.5,18.1c-2.2,5-6.9,8.6-8.6,15.2c19.5-11.2,33.3-47.5,23.6-61.7
			C576,165.9,578.4,175.6,571.5,184.3z"/>
		<path d="M570.8,143.2c-1.9,1-4,1.6-6.1,1.7c-4.1,0.2-8.3,0.7-12.3,1.3c-7.1,1.1-11.4,0.2-15.2-5.7
			c-2.1-3.2-4.1-6.5-5.9-9.7c-2-3.9-5.8-6.5-10.1-7c4.4,5.4,7.8,11.6,10,18.3c1.8,4.3,5.9,7.3,10.5,7.8c4,0.6,8,0.6,11.9,0
			c7.8-1,15.7-3,22.9,2.5L570.8,143.2z"/>
		<path d="M524.9,141c-0.4-7.9-6-14.1-12.5-13.8c0.1,3.3,1.7,6.3,4.3,8.2c3.4,2.3,4.4,6.9,2.1,10.4
			c-0.1,0.1-0.1,0.2-0.2,0.3c-2.6,4.1-5.2,2.6-8.2,0.3c-4.5-3.2-10.4-1.4-15.3,4.7c6.5-1,13-1.1,19.5-0.4
			C520,150.9,524.7,146.5,524.9,141z"/>
		<path d="M476.7,155.5c-8.6-6.7-7.6-15.5-6.7-24.7c-4.7,2-4.4,7-6.7,8c-6.8,3-2.8,6.2-1.1,9.5
			C466.2,151.4,468.9,156.5,476.7,155.5z"/>
		<polygon points="462.2,148.6 462.1,148.5 462.1,148.4 462.1,148.5 		"/>
		<path d="M480.4,186.1c8.1-0.4,16.1-2.3,23.6-5.6C496.1,174.9,489.8,176.5,480.4,186.1z"/>
		<path d="M601.1,132.2c4.1-0.5,5.5-3.5,5.8-8c0,0.2,0-0.3-0.2-0.8c-0.9-1.6-2.7-2.3-3.8-1.3c-2.3,2.1-5.3,4.1-6,7.3
			C596.6,130.6,598.7,132.5,601.1,132.2z"/>
		<path d="M560.8-4.8c0.3,1.6,0.5,3.9,2.6,3.9s2.1-2.8,2.7-4.1c-0.3-2.1-0.5-3.7-0.8-5.4c-0.2-1.8-1.9-3-3.6-2.7
			c-0.2,0-0.4,0.1-0.6,0.1c-2.3,0.6-0.9,2.5-0.8,3.8C560.4-7.8,560.5-6.3,560.8-4.8z"/>
		<path d="M552.6,1.4c1.3,0.3,2.6,0.2,3.8-0.2c1.4-0.5,1.1-1.6,0.4-2.7c-0.7-1.1,0-2.8,0.8-4.1
			c1.6-3.2-0.5-3.5-3.6-3.6c-2.1,1.2-1.6,4.4-3,6.4C550.3-1.3,551,0.6,552.6,1.4C552.6,1.4,552.6,1.4,552.6,1.4z"/>
		<path d="M527,160.4c-3.5,2.2-5.8,5.8-9.6,7.7c-1.4,0.7,0,2.1,1.1,2.3c3.2,0.5,11.1-5.4,11.4-8.6
			C529.8,160,529,159.2,527,160.4z"/>
		<path d="M446.7,137.5c-1,1.2-2.6,2.4-0.6,3.6c1.3,1,3.2,0.8,4.2-0.5c0.2-0.3,0.4-0.6,0.5-0.9
			c0.9-2.5,2-4.9,3.4-8.6C451,132.2,448.3,134.5,446.7,137.5z"/>
		<path d="M563.1,142.1c0-1.8-1.3-3.2-3.1-3.5c-1.6,0-3.2,0-3.2,2.1c0,1.7,1.3,3,3,3c0.1,0,0.2,0,0.3,0
			C561.4,143.7,562.8,143.9,563.1,142.1z"/>
		<path d="M484.6,149.3c-0.6,0-1.4,0-1.6,0.4c-1.5,2.1-6.2,1-5.5,4.4s4.1,0,6.3,1.4
			C483.6,153.4,485.9,151.4,484.6,149.3z"/>
		<path d="M483.7,155.5L483.7,155.5L483.7,155.5L483.7,155.5z"/>
		<path d="M556.5,3.9c-2.1-0.8-3.2,1.1-5.1,3c2.3,0,3.7,2.1,5.4,0C557.4,5.8,557.8,4.4,556.5,3.9z"/>
		<path d="M582.3,218.3c2-0.9,3.7-2.4,4.6-4.4C582.5,214.4,582.5,214.5,582.3,218.3z"/>
		<path d="M587.2,213.6v0.2l0,0l0,0V213.6z"/>
		<path d="M590.4,35.2v4.4C588.8,37.3,588.8,37.3,590.4,35.2z"/>
		<path d="M425.4,68.3c-3.8-3.5-5.4-1.4-7.5,3.5c4.4-2.2,8.7,1.9,11.8-3.4L425.4,68.3L425.4,68.3z"/>



        </g>
    </g>
</svg>