<?xml version="1.0" encoding="UTF-8"?>
<svg width="1600px" height="1200px" viewBox="0 0 1600 1200" version="1.1" xmlns="http://www.w3.org/2000/svg" xmlns:xlink="http://www.w3.org/1999/xlink">
    <!-- Generator: Sketch 51.3 (57544) - http://www.bohemiancoding.com/sketch -->
    <title>Custom Preset</title>
    <desc>Created with Sketch.</desc>
    <defs></defs>
        <g id="raremirare" transform="translate(300.000000, 523.000000)" fill="darkviolet" fill-rule="nonzero">
            <path d="M755.23,564.44c0-9.27,0-18.39,0-27.51,0-3.17-.18-6.33-2.36-8.94-2.74-3.3-9.22-4.67-14.36-3-4.89,1.57-8,5.27-8.07,10.24-.13,9.64,0,19.28,0,29.22H702.76v-59.3h26.59v9.19c11-14.46,40.44-14.61,49.49.5,9.88-11.45,29.8-15.18,43.29-7.94,7.19,3.85,10.86,10.25,11.3,18.22.44,7.81.29,15.66.36,23.49a127.16,127.16,0,0,0,.63,15.81H807.59c-1.27-1.65-1-3.71-1-5.67-.08-7.33,0-14.66-.13-22-.1-8.89-3.82-12.59-12.47-12.51-7.8.06-12.45,4.86-12.49,13,0,9,0,17.95,0,27.23Z" transform="translate(-300 -523)"/>
            <path d="M521.28,559.36c-1-8.15-.21-16.31-.15-24.46.12-17.6-6-26.32-21.64-30a87.58,87.58,0,0,0-28.8-1.67c-6.82.69-13.54,1.7-19.77,4.74-7.47,3.66-12.19,9.37-13.17,18.12h25.81c7-7.39,15.33-5.8,23.49-4.49,3.64.58,6.46,2.52,6.52,7.22-8.31-.68-16.44-1.46-24.59-.92-8.64.57-17.32,1.24-25.2,5.28-8.6,4.39-10.13,9.44-9.83,16.87.31,7.62,5.64,11.73,12.25,13.37,16,4,32,3.35,47.46-2.92.23-.1.57.07.86.11,1.09,1.09.36,2.94,1.41,3.88h26C521.71,562.66,521.48,561,521.28,559.36Zm-58.71-12.72c-.24-3.61,2.27-5.14,5.15-5.52,8.76-1.16,17.52-.69,26.41.39C490.35,550.39,468.88,553.67,462.57,546.64Z" transform="translate(-300 -523)"/>
            <path d="M1043.82,547c.15-6.65.49-13.3-.18-20-1-10.2-6.39-16.79-15.87-20.34-7.45-2.79-15.2-3.65-23-3.79-10.54-.18-21,.56-30.74,5.11-7.55,3.53-12.23,9.32-13.26,18.09h26c6.55-7.37,14.82-5.65,22.81-4.6,3.79.5,6.93,2.36,7.11,7.38-8.29-.68-16.41-1.47-24.55-.93-8.65.57-17.33,1.22-25.22,5.24-8.77,4.47-10.16,9.5-9.9,16.84.27,7.6,5.57,11.76,12.19,13.41,16,4,32,3.39,47.44-2.89.37-.15.62-.25.89.07,1.21,1,.35,2.95,1.56,3.94h26A87.83,87.83,0,0,1,1043.82,547Zm-58.25-.28c-.22-3.88,2.55-5.31,5.59-5.66a105.53,105.53,0,0,1,25.9.52C1013.47,550.36,992,553.68,985.57,546.68Z" transform="translate(-300 -523)"/>
            <path d="M673.91,508a54.42,54.42,0,0,0-18.73-4.77c-14-1.17-27.62,0-40.07,7.23-7.38,4.3-12.46,10.48-13.74,19.18-2.34,15.8,5.66,28.07,21.51,33,12,3.73,24.27,3.82,36.6,2.52,7.31-.77,14.4-2.54,20.85-6.27,5.48-3.16,9.59-7.44,11.57-14H664.63c-9.14,6.61-18.76,6-28.45,3.46-3.56-.94-6.85-3-7.53-7.57h63.63C693.51,525.67,686.91,514.1,673.91,508ZM629,528.21c1.45-6,6.53-8.7,17.14-9.17,9.94-.44,16.73,2.65,18.92,9.17Z" transform="translate(-300 -523)"/>
            <path d="M1195.3,507.46c-18.16-7.12-36.47-6.38-54.33,1.42a27.89,27.89,0,0,0-14.49,13.85c-7.71,16.36,1.07,34.2,19.59,40,10.85,3.39,22,3.62,33.14,2.81,9.34-.68,18.48-2.59,26.39-8.07,4.41-3.05,7.89-6.93,9.25-12.66h-27.41c-10.76,8.91-32.51,6.6-35.75-4.21h63.77C1216,524.14,1209.64,513.07,1195.3,507.46Zm-43.37,20.77c1.61-6.12,7.23-9,17.72-9.22,9.92-.19,16.3,2.83,18.34,9.22Z" transform="translate(-300 -523)"/>
            <path d="M1268.67,513.19V479h21.95c1.27.94.12,2.6,1.12,3.55,9.59-6,21.23-5.62,28.07,1,6.41-5.82,19-6.9,26.41-2.29,3.8,2.37,6,5.75,6.13,10.24.13,7.14,0,14.29,0,21.77h-23.61c-1.19-5.88.8-12.12-1.11-17.83-4.86-.85-6-.13-6.2,4-.18,4.48,0,9,0,13.8H1298.7c-.68-5.81.3-11.78-.54-17.38-4.88-1.66-6.49-.8-6.7,3.54s0,9,0,13.82Z" transform="translate(-300 -523)"/>
            <path d="M430.43,504v23.75c-5.23-.92-10.16-2.23-15.32-2.13-11.25.22-16.89,5.46-17.2,16.74-.19,7.29,0,14.59,0,22.13H370.07V505h26.51c1.18,2.55-.15,5.49.89,8.43C406.63,503.36,418.31,503.23,430.43,504Z" transform="translate(-300 -523)"/>
            <path d="M920.87,564.48H893V505.14h26.64c1,2.58-.09,5.31.8,8.31,9.09-10,20.75-10.21,32.92-9.47v24a54.27,54.27,0,0,0-16.51-2.27c-9.64.38-15.09,5.33-15.81,15-.3,4-.15,8-.17,12C920.85,556.42,920.87,560.24,920.87,564.48Z" transform="translate(-300 -523)"/>
            <path d="M535.87,504.89h26.62v9.55c9.4-11.08,21.24-11.12,33.66-10.49v23.76c-4.88-.7-9.62-2.13-14.63-2.08-12.15.12-17.82,5.52-17.92,17.56-.06,6.83-.05,13.66-.07,20.49a4.24,4.24,0,0,1-.19.75H535.87Z" transform="translate(-300 -523)"/>
            <path d="M1119.09,527.92a55.79,55.79,0,0,0-16.41-2.26c-10,.38-15.7,5.84-16.06,15.88-.13,3.83,0,7.66,0,11.49v11.35h-27.84V505.13h26.8v9.51a25.08,25.08,0,0,1,15.35-9.81,57.66,57.66,0,0,1,18.19-.81Z" transform="translate(-300 -523)"/>
            <path d="M849.43,564.44c-.65-19.83-.11-39.41-.34-59.33h28.08v59.33Z" transform="translate(-300 -523)"/>
            <path d="M1218.8,479h46a81.46,81.46,0,0,1,.09,14.33h-13.63a8,8,0,0,0,.34,5.5c2.92,2.12,6.23,1,9.73,1.63a82.93,82.93,0,0,1-.13,13c-6.61.6-13.06,1.29-19.47.12-7-1.29-10.21-5.34-10.33-12.49,0-2.31,0-4.62,0-7.47H1218.8Z" transform="translate(-300 -523)"/>
        </g>
</svg>
