<?xml version="1.0" encoding="UTF-8"?>
<svg width="800px" height="1000px" viewBox="0 0 800 1000" version="1.1" xmlns="http://www.w3.org/2000/svg" xmlns:xlink="http://www.w3.org/1999/xlink">
    <defs></defs>
        <g id="skull_mobile" transform="translate(300.000000, 523.000000)" fill="red" fill-rule="nonzero">
			<path d="M50.9-140.4L50.9-140.4L50.9-140.4L50.9-140.4z"/>
			<path d="M249.6-21.7c0.9-11.7,0.5-13.2-10.9-15.5c-3.7-0.7-4.9-2.4-4.6-5.8c0.5-6.3,1.1-12.3,1.5-18.8
				c1.3-19.3-1.4-37.7-13.6-53.5c-1.7-2.1-1.9-5-0.5-7.2c3.1-7.6,9-13.6,12-21.3c6.7-18.1,10.6-37.2,11.6-56.5
				c0.6-6.5,0.3-13.1-1.1-19.5c-0.8-3.6-2.7-6.8-6.7-6.7s-5,4.4-5.1,7.2c-0.4,7-1.6,13.9-3.7,20.6c-5,18.8-12,36.5-25.5,51
				c-6.9,7.4-6.9,7.2-15.6,2.3c-28.3-16.5-61.7-22.1-93.8-15.8c-7.8,1.9-15.4,4.6-22.7,7.9c-7.4,2.9-14.2,7.2-19.8,12.8
				c2.3,0.5,4.7,0.2,6.8-1.1c0.6,5.1,2.8,3.6,4.8,1c3.5-4.7,8.1-8.6,13.4-11.2c4.3-2.1,9-3,13.8-2.5c1.3,0.3,2.6,0,3.6-0.7
				c2.7-1.9,4.9-1.7,6.3,1.7c1.4,3.4,3.8,3.2,5.7,0.8c2.6-3.3,4.7-2.8,6.6,0.5c2.6,3.8,6.1,6.9,10.3,8.8c9,4.9,18.5,9,27.6,13.9
				c9.5,4.3,17,12.1,20.9,21.8c0,0.5,0.5,1.3,0.3,1.6c-5,8.9,2.3,17.1,1.3,26.1c-0.5,9.4,1,18.7,4.5,27.4c2.3,6.6,1.8,13.9,4.9,20.6
				c1.4,3.6,3.7,6.7,6.7,9c4,2.1,6.5,6.2,6.6,10.7c0,2.1,1.7,2.9,3.7,2.3c1.6-0.6,3.5-0.1,4.5,1.4c2.4,2.6,4.1,2.3,4.6-1.6
				c0.2-1.8,0-3.9,2.4-5.2c3.1,4.1,7.9,7.2,3.3,13.3c-1.7,2.3-0.5,4.1,2.4,4.1s4.9,0,7.4,0c1.7,0.2,3.3-0.9,3.5-2.6
				c0-0.3,0-0.6,0-0.9c0.4-3.6,2.2-7,5-9.3c1-1.1,1.7-2.2,3.2-1.2c1.2,0.8,1.5,2.4,0.8,3.6c-0.9,4.2-2.7,8.1-5.2,11.5
				c2.2,2,3.7-0.6,5.7,0.4c-1.4,4.1-3.7,6.7-8.6,5.3c-3.4-1-5.3,0-6.3,3.7c-0.8,2.3-2,4.5-3.5,6.5c-4.5,7.3-3.3,11.4,4.4,14.8
				c1,0.5,1.8,1.3,2.2,2.4c-1.9,0.2-3.7,0.4-5.6,0.7c-3.6,0.4-6.3,3.6-5.9,7.3c0.1,0.8,0.3,1.7,0.7,2.4c1.4,2.1,1.2,4.9-0.3,6.8
				c-3.4,4.9-3.8,11.1-7.6,15.7c-0.2,0.3-0.4,0.7-0.4,1c1.6,9.5-4.5,16.5-7.9,24.3c-1.1,3.2-3.2,6-6,7.9c-2.5,1.6-1.9,4.7-2.1,7.5
				c7.7,1.4,8-9.9,16.5-9.2c-4.8,6.3-10.3,12-16.5,16.9c-2.4,3.2-5.8,5.6-9.7,6.6c0-1,0-3.2-1-2.5c-2.3,1.5-5.7-2.1-7,1.9
				c-3.7,10.9-14,14.6-22.7,19.6c-3,1.7-7.8,0.7-11.7,0c-2.8-0.4-1.2-2.6-0.5-4.1c4.1-8.6,8.2-17.1,12.3-25.6c0.5-1,0.9-2.1,1.7-4.1
				c-4.1,2.4-7.3,6-9.1,10.4c-1.7,3-3,6.2-4.9,9c-4.1,7.4-13.1,10.4-20.8,7c-5.5-1.9-10.7-5.2-17-3.5c-1.3,0.4-2.2-0.9-3.2-1.8
				c-4.2-4.1-10.3-5.4-15.8-3.4c-7.9,2.9-13.7-1.1-13.2-9.5c0-2.2-2.1-6.6,1.9-6.5s1.9,4.6,1.5,6.8c-0.7,4.4,0.4,5.8,4.9,5.1
				c10.9-1.2,21.9,0.5,31.8,5.1c3.8,1.3,7.7,2.2,11.6,2.8c6.9,1.8,14.2-1.2,17.8-7.3c8.2-12.7,18.7-23.6,27.3-35.8
				c3.7-5.3,8-10.7,7.8-18c-0.3-11.7-7.1-16.9-18.2-13c-4.3,1.1-8.2,3.3-11.3,6.4c-11.2,13.7-27.6,16.5-43,21.9
				c-2.9,0.5-5.8,1.6-8.2,3.3c2.9,1.7,5.1,4.4,6.2,7.6c0.6,2.9,2.5,2.4,4.1,0.6c1.1-1,2-2.3,2.6-3.7c0.7-2.6,1.9-4.1,4.7-3.7
				c2.8,0.5,5.5,3.1,5,5.4c-1.9,7.9,3.4,8.2,8.6,9.4c0.5,0.2,1.1,0.4,1.5,0.7c0,0,0,0.3,0.6,0.9c-5.6,3.5-3.8,10-5.7,15.5
				c-2.8-1.2-2.5-3.2-2.3-5.3c0.4-2.3,0.6-4.5,0.7-6.8c0-1.2,0-3-1.7-3.1s-4.1-0.3-4.1,1.9c0,3-2.2,3.8-4.1,4.8c-1.7,0.5-2.9,2-3,3.7
				c0,1.2,1.1,3.4-1.6,3.5c-1.6,0.1-3.1-0.9-3.5-2.5c-1.9-6-7.1-10.4-7.8-16.7c-0.5-4.4-5.7-5.3-6.2-10.8c-1.5,3.4-4.1,4.5-4.5,7.7
				s-3.6,2.5-5.8,2.8c-0.4,0-1.4-1-1.4-1.6c0-2.1,1.3,0.3,1.8-0.3c2-2.7,0.8-4.1-1.6-5.9c-3.5-1.8-5.8-5.2-6.2-9
				c0-2.5,2.1-2.8,2.1-4.9c0.6,3,2.3,4.1,5.1,3.7c2.9-0.5,2.4-2.6,2.5-4.9c0.2-3.8,0.8-7.6,1.8-11.2c0.8-3,1.4-6.3,5.5-7.2
				c1.9-0.6,3.3-2.2,3.6-4.1c-1.6-1.2-2.8,0.9-4.1,0.5C79.9,60.2,73,61,68.3,57.2c-1.1-0.8-1.9-1.9-2.6-3c-1.3-1.9-2.4-3.9-3.6-5.8
				l0,0c-4.1-4.1-9.2-4.1-14.2-3.4c-5.1,1.1-10.3-0.6-13.7-4.6C31.1,36.6,30.8,25,34,21.3c0.9-1,1.9-2.1,1.2-3.5
				c-0.7-1.1-2.2-1.5-3.3-0.8c-0.1,0.1-0.2,0.1-0.3,0.2c-2.1,1.2-3.5,0-5.2-0.7c-3.7-1.9-5.8,0-6.9,3.6c-2.1,7.8,1.1,12.6,6.9,17.3
				c3.8,2.7,5.8,7.2,5.4,11.8l0,0c-0.6-1.4-1.5-3-3-1.5c-1.6,1.5,0.4,2.1,1.4,2.8l0,0l5.3,4.9c-3.9,0.5-7.7,1.6-11.2,3.5
				c-0.8-4.1-3.1-7.7-0.4-11.5c1.8-2.5,0-4.1-1.6-5.3c-4-3.3-7.5-7.1-10.5-11.3C7.7,26,8.9,20.1,10.1,14.3c0.3-1.1,0.8-2.2,1.2-3.2
				c0.8-2.3,1-5.4,3.7-6s3.7,2.5,5.1,4.4s5,2,7.3,1.7c7.8-0.5,15.5,1.3,22.2,5.3c1.8,0.8,3.7,1.2,3.2,4.1c-2.4,1.2-7.3-3.5-7.6,3.1
				c0,2.3,0,3.3,2.8,2.3c3.8-1.5,8.2-1,11.6-4.1c1.1-1.2,2.9-1.3,4.1-0.2c-0.6,1.6-1.6,3.1-2.8,4.4c-1.1,1.3-1,3.2,0.3,4.3
				c0.1,0.1,0.2,0.1,0.2,0.2c1.2,0.9,2.4-0.5,3.2-1.6c4.1-4.9,7.6-10.2,10.4-16c2-6.7,3.2-13.6,3.4-20.6c0.5-6.7,0.6-13.5,0.3-20.2
				c0-5-4.1-9-4.1-14.3c0.4-3,0-6.1-1.2-8.9c-3.2,1.5-2.7,4.7-4.1,6.7c-0.9,0.6-2,0.4-2.6-0.5c-4.5-4.6-4.4-4.6-8,1.2
				c-2.7,4.5-5.6,8.8-8.8,12.9c-1.5,1.8-3.5,3.1-5.8,3.8c-10.1,3.5-20.9,4.6-31.5,3.3c-4.1-0.6-4.9-2.9-3.2-5.9
				c3.6-7.2,5.2-15.2,4.6-23.3c-0.1-1.9,0.4-3.8,1.4-5.4c0.3-0.5,3.5-3.3-1.2-2.8c-1.2,0-0.4-3,0.7-3.5c2.1-0.9,5.2-0.9,2.3-4.1
				c4.1-3.2,2.7-7.9,3-12s1.7-8.1,4.1-11.4c2.5-4.2,4.5-8.6,5.8-13.3v-0.5c7.2-3.2,4.8-10.6,7-16c1.5-3.7,0.5-8.6,4.8-11.1
				c3.4-1.8,7.2-3.2,8.6-7.3c-3.7,1.1-6.9,3.4-9.2,6.5c-1.4,0.6-2.7,1.3-3.9,2.2c-2.4,2.7-6.5,2.9-9.2,0.5l0,0
				c-9.5-6-18.4-12.8-26.5-20.6c-5-4.4-9.7-9.2-13.8-14.4c-11.2-14.7-21.1-30.4-29.7-46.8c-1.1-2.1-2-5.1-5.3-4.1s-2.9,3.8-2.5,6.3
				c0.8,5.6,2.2,11.1,4.1,16.5c6.3,20,15.7,39,27.8,56.2c8.6,11.5,18.1,22.2,28.4,32.1c2,1.9,3.8,3.8,2.8,6.9
				C8.2-83.8,9-68.5,11.3-53.1c1.4,7,0.4,14.2-2.8,20.6c-0.9,2.4-3.2,3.9-5.8,3.7c-3.3-0.4-6.4,1.9-6.8,5.3c-0.1,0.5-0.1,1,0,1.4
				c0,8.2-0.7,17.1,3.5,24.7C3,10,4.3,18.3,3.2,26.4c-0.5,7.4-2.5,14.7-0.8,22.2c0.3,5.4,5,9.5,10.4,9.2l0,0c7.8,0,8.2,0,7.8,8.2
				c-0.7,10.2,2.1,20.3,8,28.5c3.6,6,6.3,12.5,8.2,19.3c4,13.1,7,26.4,9.1,39.9c3.5,19.4,10.9,25.1,29.2,26.6
				c8.2,0.7,16.8-0.2,25.2,0c11.4,0.5,20.6-4.6,29.2-11.2c9.3-7.2,18-15.1,27.6-21.9c18.2-12.2,35.7-25.5,52.4-39.7
				c6.3-5.4,9.9-13.4,9.8-21.8c0-4.9-0.5-9.9-0.8-14.8c-0.6-3.7,0.7-7.4,3.5-9.9c2.8-2.3,5.6-4.5,8.6-6.5
				c11.2-7.3,13.1-11.9,9.2-24.7c-2.6-7.7-2.1-16.1,1.6-23.4C246.1-2.2,248.9-11.8,249.6-21.7z M174-114.7c-4.4-3.7-8-8.2-10.9-13.2
				l0,0c2,1.4,4.1,3,6,4.3c1.9,1.3,3,3,5.1,1.5C172.9-119.7,175.6-117.4,174-114.7z M176.1-98.5L176.1-98.5c0.9,1.9,1,4.2,0.2,6.2
				C174.2-94.4,175.5-96.4,176.1-98.5z M177.7-72.6L177.7-72.6c-0.7-4.1-2.9-8.4-0.6-13C178.4-81.4,178.6-76.9,177.7-72.6z
				M174.6-122c0.9-2.9,1.7-6.1,6.9-3.8c-3.1,0.5-1.4,7.3-6.9,3.6V-122z M185-38.2L185-38.2c3,2.7,6.8,4.7,7.6,9.4
				c-4.4-1.1-7.5-5-7.6-9.6V-38.2z M197.7-38.9c-8-1.4-15.9-15.4-15.6-28c2.5,2.1,1.4,5.7,4.1,7.2c1.9-1.2-0.2-2.8,0.3-4.1
				c0.6-1.3,1.7-4.9,4.1-1.2c6.2,3.5,3.3,9.9,3.9,14.8c0.2,2.5-0.5,4.7,1.7,6.7C197.6-42.5,198.2-40.7,197.7-38.9z M130.3,112.8
				c2.6,1.9,1.6,3.7,0,5.6V112.8z M127,86.3L127,86.3c1.2,1,1.7,1.2,1.7,1.5c0.5,2.8,1.4,5.6-0.4,8.2c-0.4,0.5-1.2,0.6-1.7,0.2l0,0
				c-0.1-0.1-0.2-0.2-0.3-0.3C124.3,92.7,125.5,89.9,127,86.3z M84.3,105c0.3-1.2,1.3-2,2.5-1.9c0.9,0,1.4,0.7,0.9,1.6
				s-0.9,2.2-1.2,2.1C84.3,106.5,84.1,105.8,84.3,105z M82.6,113.8c0.3-2.9,2.1-3.2,5-2.3c-1.6,1.7-0.3,4.9-3.5,5.1
				C83.1,116.6,82.5,114.9,82.6,113.8z M47.3-17.8c1.3-0.8,2-1.4,2.8-1.8c6.5-3.8,7.5-3.4,10.1,3.6c0.6,2.2,1.9,4.1,3.6,5.6
				c3,2.3,2.6,5.3-0.7,7.4c-4.9,3.5-10.5,5.8-16.5,6.5C52.3-3.6,57.6-10.6,47.3-17.8z M20.9-14c3,3.4,1.2,7.6,2.6,11.2
				C19.4-5.8,20.1-9.9,20.9-14z M7.5-124.3c-3.1-1.7-2.1-5.7-4.6-7.9c-9.9-7.9-17.8-18-22.9-29.6c2-0.3,4.1,0.7,5,2.5
				c2.2,6.3,9,7.7,12.6,12.3c1.6,2.1,4.5,3.3,4.1,7c-0.2,1.9,2.1,2.7,3.4,3.5c5.8,3.8,10.3,9.2,16.1,13.1c3,2.1,4.4,6.5,9.7,6.3
				c-2.5,4-5.5,7.7-9,10.9c0.5-4.6,0.3-7.4-3.8-10C14-118.8,11.5-122.1,7.5-124.3z M7.5-21.5c9.3,3.4,6.6,13,10.3,19.2
				c-2.7-0.2-3,0-3.7-2.8c-1.1-4.7-3.4-9.1-6.7-12.6c-1.6-1.3-1.1-2.5-0.1-3.7L7.5-21.5z M63.4,92.1c2.5,1.2,4.6,3.2,6,5.6
				c0.9,1.5,2,2.9,1.1,4.7c-0.5,1.1-1.8,1.6-2.9,1.2c-1.9-0.6-4.4-0.7-4.9-3.2C61.7,97.6,62,94.6,63.4,92.1z M60,116.1
				c0.2-0.5,0.4-0.9,0.7-1.4c1.3,3.2,2.8,7-1.4,8.2c-3.1,1.2-6.6-0.3-7.8-3.4c-0.2-0.6-0.4-1.2-0.4-1.8c-0.4-3.2-1.4-6.3-2.8-9.3
				c-0.6-0.9-1.1-2.2,0-3.1c1.1-0.9,2.4,0,3.6,0.6c2,1.2,3.2,3.4,3.2,5.7c0.1,1.5,0.4,3,0.7,4.5c0.4,1.4,0.6,3.5,2.4,3.4
				C60.1,119.6,59.7,117.3,60,116.1z M57.2,94.6c-2.1-1.4-4.4-2.6-6.7-3.7C53.5,90.4,57.9,87.3,57.2,94.6z M32.5,94.9
				c-6.7-6.2-10.1-15.2-9.1-24.2c3,6.1,6.4,10.4,7.5,15.9c0.2,2.5,1.6,4.7,3.8,5.8c0,1.6,2.5,0.7,2.9,2.3c-1.6,1.4-3.3,2.1-4.9,0.2
				H32.5z M34.8,92.3c-1.2-5.7-2.3-11.4-3.4-17.1c-1.6-3.8-0.4-8.3,2.8-10.9c0,7.8,4.8,13.4,5.5,20.2c0.5,3.7-0.4,6.9-4.7,7.8H34.8z
				M42.8,51.5c2.2-0.6,3,1.4,3.8,3.5c1.8,5.8,4.2,11.5,7.2,16.9c1,1.5,0.6,3.6-0.9,4.6c-0.2,0.1-0.3,0.2-0.5,0.3
				c-2.5,1.3-2.3,3-1.3,5.6c-5.5-1.2-7.5-4.1-7.1-8.8c0.2-5.7-0.8-11.4-2.9-16.8C40.3,54.3,40.5,52.1,42.8,51.5z M46.1,131.7
				c-2.6-2.6-3.9-6.1-3.7-9.7c0-1.5,0.4-3.4,2.5-3c3.5,0.8,0,2,0,3c0,3.1,1.9,6.4,7,10C49.3,134.4,47.6,133.1,46.1,131.7z
				M54.9,145.6c-4.7-2-3.7-6.7-5.4-9.8c2.1,2.8,6.2,4.7,5.3,9.8H54.9z M97.5,171.9c-7.2-2.7-15.1-3.6-22-7.4c-5.6-3-8.9,2.1-13,4.1
				c-2,0.9-3.6,3.4-6,1.6s-5.2-3.5-3.8-7.6c0.2-0.9,0.3-1.9,0.3-2.8c0.6-2.3-1.7-6.3,0.9-6.7c3.5-0.1,6.8,1.4,9,4.1
				c3.5,3.8,6.3,3.4,8.2-1.4c1.6-3.9,3.3-7.7,4.7-11.6c2.1-5.8,6.1-5.7,10.5-4.6c6.3,1.2,12.4,3.1,18.2,5.8l0,0
				c0.8,2.1,2.2,1.7,4.1,1.7c2.9,0,6-1.9,9.4,1c-3,0.6-5.3,3.1-5.6,6.1c-0.5,3.7-3.8,3.9-6.3,3.5c-5.8-0.1-11.3-2.1-15.8-5.8
				c-1.5-1.7-3.6-2.8-5.9-3.1c-1.6,0-3.6-0.9-4.6,1.2s0.4,3.2,1.5,4.6c8.7,10.7,23.5,14.1,36,8.2c3.2-2.1,6.9-3.3,10.7-3.4
				c-5.2,8.6-16,18.1-30.8,12.6h0.3V171.9z M226.1,22.7c0.9,1.1,2.6,1.7,2.1,3.4c0,0.5-1.8,1.1-2.3,0.9C223,25.5,226,24.1,226.1,22.7
				z M223.6,46.4c-1.2,0-2.4,0-2.4-1.5s1.3-2.1,2.8-2c1.4,0.1,2.5,0,2.5,1.4S224.8,46.1,223.6,46.4L223.6,46.4z M229.1,34.6
				L229.1,34.6L229.1,34.6c0,0.3-1.1,0.5-1.2,0.4c-0.3-0.4-0.5-0.9-0.5-1.4s0.4-0.9,1.2-0.7C229.2,33.3,229.4,34,229.1,34.6
				L229.1,34.6z M240-27.4L240-27.4c-9.4-0.7-15,4.8-20.6,12.7c0-9.2,6.6-12.7,11.4-17.2c2.7-2.5,6.5,0,9.8-1
				c1.2-0.3,1.5,1.4,1.3,2.6C241.7-29.1,241.7-27.4,240-27.4L240-27.4z"/>
			<path d="M183.1-6.9c-2.4-1.7-5.8-1.1-7.5,1.3c0,0,0,0.1-0.1,0.1c-1.5,2.1-4.3,2.8-6.7,1.7
				c-2.5-1.4-0.7-3.8-0.3-5.7c0.4-3.8,2-7.3,4.5-10.1c1.6-1.2,2-3.5,0.8-5.2c-0.8-1.2-2.3-1.7-3.7-1.4c-8.2,0.7-16.5-1.1-24.7-0.7
				c-21.7,1.2-42.2-1.4-57.3-19.9c-1.8-2.9-5.6-3.8-8.5-2.1c-0.2,0.1-0.5,0.3-0.7,0.5c7.4,4.1,10.2,10.8,12.3,17.8
				c0.4,1.1,4.1,0,1.9,2.8c-1.4,2.5-1.7,5.5-0.7,8.2c-0.6,0.5-1.3,1-0.5,1.7s1.2,0,1.5-0.8c1.7,6.1-0.5,12.9,3.7,18.9
				c-1.8,0.7-4.6-0.9-4.6,2.3c0,1-1,2.5,0.5,3c5.5,1.9,8.2,7.1,11.1,11s5.3,3.8,9,2.1c8.2-4.4,16.9-7.8,25.9-10
				c14.9-2.5,29.5-6.4,43.7-11.7c0.9-0.3,1.9-0.6,1.9-1.8S183.9-6.4,183.1-6.9z M142.5-3c-3.9,2.7-8.5,4.3-13.2,4.4
				c-2.9,0-3.5-1.7-1.6-3.6l0,0c4.3-4.5,5.7-11,3.6-16.9c4.8,0,7.7,3,11.4,3.7C146.4-14.5,145.9-5.5,142.5-3z M161.3-12.6
				c-0.3,5-3.5,9.4-8.2,11c1-4.6,1.8-8.2,2.7-12.3l0,0c0.4-1.6,1.2-2.9,3-2.6c1.7,0.2,2.9,1.8,2.6,3.5
				C161.4-12.9,161.3-12.7,161.3-12.6z"/>
			<path d="M171.7,84.4c-3.9,5.6-7.1,11.7-9.5,18.1c-2.2,5-6.9,8.6-8.6,15.2c19.5-11.2,33.3-47.5,23.6-61.7
				C176.2,66,178.6,75.7,171.7,84.4z"/>
			<path d="M171,43.3c-1.9,1-4,1.6-6.1,1.7c-4.1,0.2-8.3,0.7-12.3,1.3c-7.1,1.1-11.4,0.2-15.2-5.7
				c-2.1-3.2-4.1-6.5-5.9-9.7c-2-3.9-5.8-6.5-10.1-7c4.4,5.4,7.8,11.6,10,18.3c1.8,4.3,5.9,7.3,10.5,7.8c4,0.6,8,0.6,11.9,0
				c7.8-1,15.7-3,22.9,2.5L171,43.3z"/>
			<path d="M125.1,41.1c-0.4-7.9-6-14.1-12.5-13.8c0.1,3.3,1.7,6.3,4.3,8.2c3.4,2.3,4.4,6.9,2.1,10.4
				c-0.1,0.1-0.1,0.2-0.2,0.3c-2.6,4.1-5.2,2.6-8.2,0.3c-4.5-3.2-10.4-1.4-15.3,4.7c6.5-1,13-1.1,19.5-0.4
				C120.2,51,124.9,46.6,125.1,41.1z"/>
			<path d="M76.9,55.6c-8.6-6.7-7.6-15.5-6.7-24.7c-4.7,2-4.4,7-6.7,8c-6.8,3-2.8,6.2-1.1,9.5
				C66.4,51.5,69.1,56.6,76.9,55.6z"/>
			<polygon points="62.4,48.7 62.3,48.6 62.3,48.5 62.3,48.6"/>
			<path d="M80.6,86.2c8.1-0.4,16.1-2.3,23.6-5.6C96.3,75,90,76.6,80.6,86.2z"/>
			<path d="M201.3,32.3c4.1-0.5,5.5-3.5,5.8-8c0,0.2,0-0.3-0.2-0.8c-0.9-1.6-2.7-2.3-3.8-1.3c-2.3,2.1-5.3,4.1-6,7.3
				C196.8,30.7,198.9,32.6,201.3,32.3z"/>
			<path d="M161-104.7c0.3,1.6,0.5,3.9,2.6,3.9s2.1-2.8,2.7-4.1c-0.3-2.1-0.5-3.7-0.8-5.4c-0.2-1.8-1.9-3-3.6-2.7
				c-0.2,0-0.4,0.1-0.6,0.1c-2.3,0.6-0.9,2.5-0.8,3.8C160.6-107.7,160.7-106.2,161-104.7z"/>
			<path d="M152.8-98.5c1.3,0.3,2.6,0.2,3.8-0.2c1.4-0.5,1.1-1.6,0.4-2.7c-0.7-1.1,0-2.8,0.8-4.1
				c1.6-3.2-0.5-3.5-3.6-3.6c-2.1,1.2-1.6,4.4-3,6.4C150.5-101.2,151.2-99.3,152.8-98.5L152.8-98.5z"/>
			<path d="M127.2,60.5c-3.5,2.2-5.8,5.8-9.6,7.7c-1.4,0.7,0,2.1,1.1,2.3c3.2,0.5,11.1-5.4,11.4-8.6
				C130,60.1,129.2,59.3,127.2,60.5z"/>
			<path d="M46.9,37.6c-1,1.2-2.6,2.4-0.6,3.6c1.3,1,3.2,0.8,4.2-0.5c0.2-0.3,0.4-0.6,0.5-0.9c0.9-2.5,2-4.9,3.4-8.6
				C51.2,32.3,48.5,34.6,46.9,37.6z"/>
			<path d="M163.3,42.2c0-1.8-1.3-3.2-3.1-3.5c-1.6,0-3.2,0-3.2,2.1c0,1.7,1.3,3,3,3c0.1,0,0.2,0,0.3,0
				C161.6,43.8,163,44,163.3,42.2z"/>
			<path d="M84.8,49.4c-0.6,0-1.4,0-1.6,0.4c-1.5,2.1-6.2,1-5.5,4.4s4.1,0,6.3,1.4C83.8,53.5,86.1,51.5,84.8,49.4z"/>
			<path d="M83.9,55.6L83.9,55.6L83.9,55.6L83.9,55.6z"/>
			<path d="M156.7-96c-2.1-0.8-3.2,1.1-5.1,3c2.3,0,3.7,2.1,5.4,0C157.6-94.1,158-95.5,156.7-96z"/>
			<path d="M182.5,118.4c2-0.9,3.7-2.4,4.6-4.4C182.7,114.5,182.7,114.6,182.5,118.4z"/>
			<path d="M187.4,113.7v0.2l0,0l0,0V113.7z"/>
			<path d="M190.6-64.7v4.4C189-62.6,189-62.6,190.6-64.7z"/>
			<path d="M25.6-31.6c-3.8-3.5-5.4-1.4-7.5,3.5c4.4-2.2,8.7,1.9,11.8-3.4L25.6-31.6L25.6-31.6z"/>
        </g>
</svg>