<?xml version="1.0" encoding="utf-8"?>
<!-- Generator: Adobe Illustrator 23.1.1, SVG Export Plug-In . SVG Version: 6.00 Build 0)  -->
<svg version="1.1" id="Calque_1" xmlns="http://www.w3.org/2000/svg" xmlns:xlink="http://www.w3.org/1999/xlink" x="0px" y="0px"
	 viewBox="0 0 190.4 190.4" style="enable-background:new 0 0 190.4 190.4;" xml:space="preserve">
<title>Plan de travail 4 copie</title>
<g id="Calque_4">
	<path d="M97.4,40.4L97.4,40.4C97.3,40.4,97.3,40.4,97.4,40.4L97.4,40.4L97.4,40.4z"/>
	<path d="M189.7,95.5c0.4-5.5,0.2-6.1-5.1-7.2c-1.7-0.4-2.3-1.1-2.1-2.7c0.2-2.9,0.5-5.9,0.7-8.7c0.6-9-0.6-17.6-6.3-24.9
		c-0.8-1.1-0.8-2-0.3-3.4c1.4-3.6,4.2-6.3,5.6-9.9c3.3-8.4,4.8-17.3,5.5-26.2c0.2-3,0.2-6-0.5-9c-0.4-1.7-1.3-3.2-3.2-3.1
		c-2,0.1-2.3,2.1-2.4,3.4c0,3.4-0.9,6.4-1.7,9.6c-2.3,8.7-5.6,17-11.9,23.7c-3.2,3.5-3.2,3.4-7.2,1.1c-13.7-7.6-28.2-10.3-43.6-7.3
		c-3.7,0.7-7.1,2.2-10.6,3.6c-3.5,1.3-6.5,3.4-9.2,6c1.1,0.2,2.2,0.2,3.2-0.5c0.3,2.4,1.3,1.7,2.3,0.5c1.7-2.2,3.7-4,6.2-5.3
		c2-1,4.2-1.4,6.4-1.2c0.7,0,1.2,0.1,1.7-0.3c1.3-0.9,2.3-0.8,3,0.8c0.7,1.5,1.8,1.5,2.7,0.4c1.2-1.5,2.2-1.3,3.1,0.2
		c1.1,1.9,3,3.1,4.8,4.1c4.2,2.3,8.6,4.2,12.8,6.4c4.2,2.3,8,5.3,9.7,10.1c0.1,0.3,0.2,0.6,0.1,0.8c-2.3,4.2,1.1,7.9,0.6,12.1
		c-0.5,4.3,0.7,8.6,2.2,12.8c1.1,3.1,0.8,6.4,2.3,9.5c0.8,1.7,1.7,3.3,3.1,4.2c1.9,1.3,3,2.7,3.1,5c0,1,0.8,1.4,1.7,1.1
		s1.5-0.1,2.1,0.6c1.1,1.2,1.9,1.1,2.1-0.7c0.1-0.8,0.1-1.8,1.1-2.5c1.5,1.8,3.7,3.4,1.5,6.1c-0.8,1.1-0.2,1.9,1.1,1.9
		c1.2,0,2.3,0,3.5,0c1.1,0,1.6-0.5,1.6-1.6c0-1.9,1.2-3.1,2.4-4.3c0.5-0.5,0.8-1,1.5-0.6c0.6,0.4,0.6,1.1,0.4,1.7
		c-0.7,1.9-1,3.9-2.4,5.4c1,0.9,1.7-0.3,2.7,0.2c-0.7,2-1.7,3.2-4,2.5c-1.6-0.5-2.5,0.1-2.9,1.7c-0.3,1.1-1,2.1-1.6,3
		c-2.1,3.4-1.6,5.4,2.1,6.8c0.5,0.2,0.9,0.6,1,1.1c-0.9,0.1-1.7,0.2-2.6,0.3c-2.2,0.4-3.5,2.6-2.4,4.5c0.7,1.3,0.5,2.3-0.2,3.2
		c-1.6,2.3-1.8,5.2-3.6,7.3c-0.1,0.1-0.2,0.3-0.2,0.5c0.7,4.4-2.1,7.6-3.7,11.3c-0.6,1.5-1.3,2.8-2.8,3.7c-1.2,0.7-0.9,2.2-1,3.5
		c3.6,0.6,3.7-4.6,7.6-4.3c-2.2,3.4-5.2,5.5-7.6,7.8c-1.3,1.3-2.5,2.8-4.5,3.1c-0.1-0.5,0-1.5-0.5-1.2c-1.1,0.7-2.7-1-3.3,0.9
		c-1.7,5.1-6.5,6.7-10.5,9.1c-1.4,0.8-3.7,0.3-5.5,0.1c-1.3-0.2-0.6-1.2-0.2-1.9c1.9-4,3.9-7.9,5.9-11.9c0.2-0.5,0.4-1,0.8-1.9
		c-2.4,1.2-3.2,3.1-4.3,4.9c-0.8,1.4-1.4,2.9-2.3,4.2c-2.4,3.7-5.6,4.7-9.6,3.3c-2.6-0.9-5-2.5-7.9-1.7c-0.6,0.2-1-0.4-1.5-0.8
		c-2.2-1.8-4.6-2.6-7.3-1.6c-3.7,1.3-6.3-0.5-6.1-4.4c0.1-1-1-3.1,0.9-3c1.6,0.1,0.9,2.2,0.7,3.2c-0.3,2.1,0.2,2.7,2.3,2.4
		c5.2-0.8,10,0.4,14.8,2.4c1.8,0.7,3.6,0.9,5.5,1.3c3.5,0.7,6.4-0.5,8.3-3.4c3.8-6,8.6-10.9,12.7-16.7c1.8-2.5,3.7-5,3.6-8.3
		c-0.2-5.5-3.3-7.8-8.4-6c-1.9,0.7-4.1,1.5-5.3,3c-5.3,6.3-12.9,7.7-19.9,10.2c-1.2,0.4-2.6,0.5-3.9,1.6c1.3,1,2.5,1.9,2.9,3.6
		c0.3,1.3,1.2,1.1,1.9,0.3c0.5-0.5,1-1.1,1.2-1.7c0.3-1.2,0.9-1.9,2.2-1.7c1.5,0.2,2.6,1.4,2.3,2.5c-0.9,3.7,1.6,3.9,4,4.4
		c0.3,0.1,0.5,0.2,0.7,0.3c0.1,0,0.1,0.1,0.3,0.4c-2.6,1.6-1.8,4.7-2.7,7.2c-1.3-0.6-1.2-1.5-1.1-2.5c0.2-1.1,0.3-2.1,0.3-3.2
		c0-0.6,0-1.4-0.8-1.4c-0.7,0-1.9-0.2-1.9,0.9c-0.1,1.4-1,1.8-2,2.2c-0.8,0.4-1.3,0.8-1.4,1.7c0,0.6,0.5,1.6-0.7,1.6
		c-0.8,0-1.4-0.4-1.7-1.2c-0.9-2.8-3.3-4.9-3.7-7.7c-0.2-2.1-2.7-2.5-2.9-5.1c-0.7,1.6-2,2.1-2.1,3.6c-0.2,1.7-1.7,1.2-2.7,1.3
		c-0.2,0-0.7-0.5-0.6-0.7c0-1,0.6,0.1,0.8-0.2c0.9-1.2,0.4-2-0.8-2.8c-1.4-1-2.8-2-2.9-4.2c-0.1-1.2,1-1.3,1-2.3
		c0.3,1.4,1.1,2,2.4,1.7c1.3-0.3,1.1-1.2,1.2-2.3c0.1-1.8,0.4-3.5,0.8-5.2c0.4-1.4,0.7-3,2.6-3.4c0.9-0.2,1.4-1,1.7-2
		c-0.8-0.6-1.3,0.4-2,0.2c-2.8,2.8-6.2,2.5-8.4-0.6c-0.6-0.9-1.1-1.8-1.7-2.7c-1.9-2-4.3-1.8-6.6-1.6c-2.5,0.2-4.7,0-6.3-2.1
		c-1.5-1.8-1.6-7.1-0.1-8.9c0.4-0.5,0.9-1,0.5-1.6c-0.4-0.7-1.2-0.6-1.7-0.3c-1,0.6-1.6,0.1-2.5-0.3c-1.7-0.9-2.7-0.1-3.2,1.7
		c-1,3.6,0.5,5.9,3.2,8c1.6,1.3,2.8,3.2,2.5,5.5l-0.8,0.6l2.5,2.3c-1.8,0.2-3.6,0.8-5.2,1.6c-0.4-1.9-1.4-3.6-0.2-5.4
		c0.8-1.2,0-2-0.7-2.5c-2.1-1.4-3.3-3.5-4.8-5.3c-1.9-2.3-1.3-5-0.8-7.6c0.1-0.5,0.4-1,0.6-1.5c0.4-1.1,0.5-2.6,1.7-2.8
		c1.4-0.3,1.7,1.2,2.4,2.1c0.9,1.2,2.3,0.9,3.4,0.8c3.8-0.5,7,0.9,10.3,2.5c0.8,0.4,1.7,0.6,1.5,1.9c-1.1,0.5-3.4-1.6-3.5,1.4
		c0,1.1,0.1,1.6,1.3,1.1c1.8-0.7,3.9-0.5,5.4-1.9c0.5-0.4,1.1-0.6,1.9-0.1c-0.3,0.8-0.7,1.5-1.3,2.1s-0.4,1.6,0.2,2.1
		c0.6,0.4,1.1-0.2,1.5-0.8c1.7-2.5,3.9-4.8,4.9-7.4c1.1-3,1.3-6.3,1.6-9.6c0.3-3.1,0.4-6.1,0.3-9.2c-0.1-2.3-1.9-4.2-2-6.6
		c0-1.3,0.2-2.8-0.5-4.2c-1.5,0.7-1.3,2.2-1.9,3.2c-0.5,0.3-1,0.1-1.2-0.2c-2.1-2.2-2.1-2.1-3.8,0.6c-1.3,2.1-2.7,4.1-4.2,6
		c-0.7,0.8-1.6,1.4-2.6,1.8c-4.8,1.5-9.6,2.3-14.7,1.5c-1.9-0.3-2.3-1.3-1.5-2.8c1.9-3.4,2.2-7,2.1-10.8c0-0.9,0.2-1.8,0.7-2.5
		c0.1-0.2,1.6-1.5-0.5-1.3c-0.5,0.1-0.2-1.4,0.3-1.6c1-0.4,2.4-0.4,1.1-2c2-1.5,1.3-3.7,1.4-5.6c0.1-1.9,0.8-3.8,1.9-5.4
		c1.4-2,1.9-4.1,2.7-6.2c0-0.1,0-0.2,0-0.3c3.4-1.5,2.2-5,3.3-7.4c0.7-1.8,0.2-4,2.2-5.2c1.6-0.8,3.4-1.5,4-3.4
		c-1.7,0.7-3.3,1.5-4.3,3.1c-0.6,0.3-1.3,0.6-1.8,1c-1.4,1.4-2.8,1.2-4.3,0.2c-4.5-2.8-8.5-6-12.3-9.5c-2.3-2.1-4.7-4.2-6.4-6.6
		c-5.1-6.9-9.9-14-13.8-21.7c-0.5-1-0.9-2.4-2.5-1.9c-1.3,0.5-1.3,1.8-1.2,3c0.3,2.7,1.1,5.2,1.9,7.7c3.1,9.3,7.1,18.1,12.9,26.1
		c3.9,5.4,8.4,10.2,13.2,14.9c0.9,0.9,1.8,1.8,1.3,3.2c-2.4,7-2,14.1-1,21.3c0.5,3.3,0.4,6.5-1.3,9.6c-0.6,1-1.2,1.8-2.7,1.7
		c-2-0.1-3.2,1.1-3.2,3.1c0,3.9-0.4,7.9,1.6,11.5c2,3.6,2,7.2,1.8,11.1c-0.2,3.5-1.2,6.8-0.4,10.3c0.6,3,2.2,4.3,4.9,4.3
		c3.7,0,3.9,0,3.7,3.8c-0.3,5,1,9.2,3.8,13.3c1.9,2.7,2.9,5.9,3.9,8.9c2.1,6,3.1,12.3,4.3,18.6c1.7,9,5.1,11.7,13.6,12.4
		c3.9,0.3,7.8-0.1,11.7,0c5.4,0.2,9.6-2.1,13.6-5.2c4.3-3.4,8.3-7,12.8-10.1c8.3-5.9,16.8-11.6,24.3-18.4c3-2.7,4.6-6,4.6-10.1
		c0-2.3-0.2-4.6-0.4-6.9c-0.1-1.8,0.2-3.4,1.6-4.6c1.3-1.1,2.6-2.1,4-3.1c5.3-3.4,6-5.6,4.3-11.5c-1.1-3.8-1.1-7.4,0.7-10.9
		C188.1,104.5,189.3,100.2,189.7,95.5z M154.6,52.3c-2-1.7-3.8-3.8-5.1-6.1l0,0c0.9,0.7,1.8,1.4,2.8,2c0.7,0.5,1.4,1.4,2.4,0.7
		C154.1,50,155.3,51.1,154.6,52.3L154.6,52.3z M156.3,71.8c-0.3-2-1.4-4-0.3-6C156.7,67.7,156.6,69.8,156.3,71.8L156.3,71.8z
		 M155.6,59.8c0.4,0.9,0.6,1.8,0.1,2.9C154.6,61.7,155.3,60.8,155.6,59.8L155.6,59.8z M154.8,48.8c0.4-1.4,0.8-2.9,3.2-1.8
		C156.6,47.3,157.4,50.6,154.8,48.8z M159.7,87.8c1.4,1.3,3.2,2.2,3.6,4.4C161,91.6,160.1,89.9,159.7,87.8L159.7,87.8z M165.6,87.6
		c-3.7-0.7-7.3-7.1-7.2-13c1.2,1,0.7,2.7,1.9,3.4c0.9-0.6-0.1-1.3,0.1-1.9c0.4-0.9,0.8-2.3,2-0.6c2.9,1.7,1.6,4.6,1.8,6.8
		c0.1,1.2-0.2,2.2,0.8,3.1C165.5,85.9,165.8,86.8,165.6,87.6L165.6,87.6z M134.3,158c1.2,0.9,0.8,1.7,0,2.6V158z M132.7,145.8
		c0.6,0.5,0.8,0.6,0.8,0.7c0.2,1.3,0.7,2.6-0.2,3.9c-0.2,0.2-0.5,0.3-0.8,0.1c-0.1,0-0.1-0.1-0.1-0.2
		C131.4,148.8,132,147.4,132.7,145.8L132.7,145.8z M112.9,154.4c0.1-0.5,0.6-0.9,1.2-0.9c0.4,0,0.6,0.3,0.4,0.7
		c-0.2,0.5-0.4,1-0.6,1C112.9,155.1,112.8,154.8,112.9,154.4z M112.1,158.5c0.1-1.3,1-1.5,2.3-1.1c-0.7,0.8-0.1,2.3-1.7,2.4
		C112.3,159.8,112.1,159.1,112.1,158.5z M95.7,97.3c0.6-0.4,0.9-0.6,1.3-0.9c3-1.8,3.5-1.6,4.7,1.7c0.4,1,0.7,1.9,1.7,2.6
		c1.4,1.1,1.2,2.5-0.3,3.5c-2.3,1.4-4.5,2.8-7.6,3.1C98,103.9,100.5,100.7,95.7,97.3z M83.4,99.1c1.4,1.6,0.6,3.6,1.2,5.3
		C82.7,102.9,83,101,83.4,99.1z M77.2,47.8c-1.5-0.8-1-2.7-2.2-3.7c-4.5-3.8-8.3-8.1-10.7-13.8c1.2-0.2,2.2,0.7,2.3,1.2
		c1,3,4.2,3.6,5.9,5.8c0.8,1,2.1,1.6,1.9,3.3c-0.1,0.9,1,1.3,1.6,1.7c2.7,1.8,4.8,4.3,7.5,6c1.4,1,2.1,3.1,4.6,2.9
		c-1.4,1.7-2.2,3.6-4.2,5.1C84,54,84,52.8,82,51.6C80.3,50.7,79,48.8,77.2,47.8z M77.1,95.7c4.4,1.6,3.1,6,4.8,8.9
		c-1.3-0.1-1.4-0.1-1.7-1.3c-0.6-2.2-1.5-4.3-3.1-5.9C76.4,96.8,76.7,96.3,77.1,95.7z M103.1,148.5c1.2,0.6,2.1,1.5,2.8,2.6
		c0.4,0.7,0.9,1.4,0.5,2.2c-0.3,0.6-0.8,0.7-1.4,0.5c-0.9-0.3-2-0.3-2.3-1.5C102.5,151,102.3,149.8,103.1,148.5L103.1,148.5z
		 M101.6,159.6c0-0.2,0.2-0.4,0.4-0.6c0.6,1.5,1.3,3.3-0.7,3.9c-1.9,0.5-3.4-0.2-3.9-2.4c-0.3-1.5-0.5-3-1.3-4.3
		c-0.3-0.5-0.5-1,0-1.5c0.6-0.5,1.1,0,1.7,0.3c1,0.6,1.4,1.6,1.5,2.7c0.1,0.7,0.2,1.4,0.3,2.1c0.2,0.7,0.3,1.6,1.1,1.6
		C101.8,161.2,101.5,160.2,101.6,159.6L101.6,159.6z M100.3,149.5c-1.2-0.5-2-1.4-3.1-1.8C98.6,147.6,100.6,146.2,100.3,149.5
		L100.3,149.5z M88.9,149.7c-2.9-3-4.7-6.2-4.3-11.3c1.4,2.9,3,4.9,3.5,7.3c0.2,1.2,0.6,2.2,1.8,2.7c0.1,0.8,1.2,0.3,1.3,1.1
		C90.4,150.2,89.7,150.4,88.9,149.7L88.9,149.7z M90,148.5c-0.5-2.7-1.1-5.3-1.6-7.9c-0.3-1.7-0.7-3.4,1.3-5.1
		c0,3.7,2.2,6.2,2.6,9.3C92.3,146.7,91.9,148.1,90,148.5L90,148.5z M93.6,129.5c1-0.3,1.4,0.7,1.8,1.6c1,2.7,1.8,5.4,3.3,7.8
		c0.6,0.9,0.2,1.9-0.7,2.3c-1.2,0.6-1.1,1.4-0.6,2.6c-2.6-0.6-3.5-1.9-3.3-4.1c0.3-2.7-0.5-5.3-1.4-7.8
		C92.4,130.8,92.5,129.8,93.6,129.5z M95.1,166.8c-1.4-1.2-1.6-2.9-1.7-4.6c-0.1-0.7,0.2-1.6,1.2-1.4c1.7,0.4,0,0.9-0.1,1.4
		c-0.1,1.4,0.9,3,3.3,4.7C96.6,168.1,95.8,167.5,95.1,166.8z M99.1,173.3c-2.2-0.9-1.7-3.1-2.5-4.6C97.7,170.1,99.6,171,99.1,173.3z
		 M118.9,185.6c-3.4-1.3-7-1.7-10.2-3.4c-2.6-1.4-4.2,1-6,1.9c-0.9,0.4-1.7,1.6-2.8,0.7s-2.4-1.7-1.7-3.5c0.2-0.4,0.1-0.9,0.2-1.3
		c0.3-1.1-0.8-2.9,0.4-3.1c1.4-0.2,3.1,0.6,4.2,1.8c1.7,1.8,3,1.6,3.9-0.7c0.8-1.8,1.5-3.6,2.2-5.4c1-2.7,2.9-2.7,4.9-2.2
		c2.9,0.7,5.8,1.3,8.4,2.7l0,0c0.4,1,1,0.8,1.9,0.8c1.4,0,2.8-0.9,4.4,0.5c-1.5,0.4-2.4,1.3-2.6,2.9c-0.2,1.7-1.8,1.8-2.9,1.7
		c-2.6-0.3-5.3-0.7-7.3-2.7c-0.8-0.8-1.6-1.4-2.8-1.5c-0.8-0.1-1.7-0.4-2.2,0.5c-0.4,0.9,0.2,1.5,0.7,2.1c4,5,10.7,6.5,16.8,3.9
		c1.6-0.7,3-1.8,5-1.6C130.8,183.7,125.9,188,118.9,185.6L118.9,185.6z M178.8,116.1c0.4,0.5,1.2,0.8,1,1.6
		c-0.1,0.2-0.8,0.5-1.1,0.4C177.3,117.4,178.7,116.8,178.8,116.1z M177.6,127.1c-0.6,0-1.1,0-1.1-0.7c0-0.8,0.6-1,1.3-0.9
		c0.5,0,1.2,0,1.2,0.7C178.9,126.9,178.2,127,177.6,127.1z M180.2,121.7c-0.1,0.1-0.5,0.3-0.6,0.2c-0.2-0.2-0.2-0.4-0.2-0.6
		c0-0.3,0.2-0.4,0.6-0.3C180.2,121.1,180.3,121.4,180.2,121.7L180.2,121.7L180.2,121.7z M185.3,92.8c-4.4-0.4-6.9,2.2-9.5,5.9
		c0.1-4.3,3.1-6,5.3-8c1.3-1.2,3.1-0.1,4.6-0.5c0.5-0.1,0.7,0.6,0.6,1.2C186.2,92.1,186.1,92.9,185.3,92.8L185.3,92.8z"/>
	<path d="M116.2,91.4c0.2,0.5,1.9,0,0.9,1.3c-0.9,1.2-0.5,2.5-0.3,3.9c-0.3,0.2-0.6,0.5-0.3,0.8c0.4,0.3,0.6,0,0.7-0.4
		c0.8,2.9-0.2,6,1.7,8.8c-0.8,0.4-2.2-0.4-2.2,1.1c0,0.5-0.5,1.2,0.2,1.4c2.6,0.9,3.9,3.3,5.2,5.2c1.5,2.1,2.5,1.8,4.2,1
		c4-1.8,7.7-3.9,12-4.7c6.9-1.2,13.7-2.9,20.3-5.5c0.4-0.2,0.9-0.3,0.9-0.8c0-0.5-0.4-0.7-0.8-0.9c-1.4-0.8-2.5-0.6-3.6,0.6
		c-0.8,0.9-2,1.4-3.1,0.8c-1.2-0.7-0.3-1.8-0.1-2.7c0.4-1.7,0.7-3.4,2.1-4.7c1.4-1.3,0.5-3.3-1.3-3.1c-3.9,0.3-7.5-0.5-11.4-0.3
		c-10.1,0.5-19.6-0.7-26.6-9.2c-0.9-1.1-2.2-2.2-4.4-0.7C113.9,85,115.1,88.2,116.2,91.4z M146.1,99.3c0.2-0.8,0.6-1.3,1.4-1.2
		c1,0.1,1.3,0.9,1.2,1.8c-0.3,2.3-1.2,4.1-3.9,5.2C145.3,102.7,145.6,101,146.1,99.3L146.1,99.3z M133,104.6
		c2.2-2.2,2.5-4.8,1.7-7.8c2.2,0.1,3.6,1.4,5.4,1.7c1.6,0.3,1.5,4.6-0.1,5.7c-1.8,1.3-4,1.9-6.1,2.1
		C132.4,106.4,132.2,105.4,133,104.6L133,104.6z"/>
	<path d="M153.4,144.9c-1.9,2.4-3.2,5.5-4.5,8.4c-1,2.3-3.2,4-4,7c9.1-5.3,15.5-22.1,11-28.8C155.6,136.3,156.7,140.8,153.4,144.9z"
		/>
	<path d="M153.1,125.7c-0.9,0.5-1.9,0.8-2.9,0.8c-1.9,0.1-3.9,0.3-5.8,0.6c-3.3,0.5-5.3,0.1-7-2.7c-1-1.5-1.8-3.1-2.8-4.6
		c-1-1.6-2.2-2.9-4.7-3.3c2.5,2.8,3.5,5.7,4.7,8.5c0.9,2.1,2.7,3.3,4.9,3.7c1.9,0.3,3.7,0.2,5.6,0c3.7-0.5,7.2-1.4,10.6,1.2
		L153.1,125.7z"/>
	<path d="M131.8,124.7c-0.2-3.7-2.8-6.5-5.9-6.4c0.2,1.5,0.6,2.7,2,3.8c1.6,1.2,2.1,3.1,0.9,5c-1.2,1.9-2.4,1.2-4,0.2
		c-2.1-1.5-4.9-0.7-7.1,2.2c3.4-0.7,6.2-0.2,9-0.2C129.6,129.2,131.9,127,131.8,124.7z"/>
	<path d="M109.4,131.5c-4-3.1-3.6-7.2-3.2-11.4c-2.2,1-2,3.3-3.1,3.8c-3.2,1.4-1.3,2.9-0.5,4.5C104.5,129.4,105.8,131.9,109.4,131.5
		z"/>
	<path d="M102.6,128.2L102.6,128.2L102.6,128.2L102.6,128.2L102.6,128.2z"/>
	<path d="M111.2,145.7c4-0.2,7.2-1.1,10.9-2.6C118.4,140.4,115.5,141.2,111.2,145.7z"/>
	<path d="M167.2,120.6c2-0.3,2.6-1.6,2.7-3.7c0,0.1,0-0.2-0.1-0.4c-0.4-0.7-1.3-1.1-1.8-0.6c-1.1,1-2.5,1.9-2.8,3.4
		C165.2,119.9,166.1,120.8,167.2,120.6z"/>
	<path d="M148.6,56.9c0.1,0.8,0.3,1.8,1.2,1.8c1.1,0,1-1.3,1.3-1.9c-0.1-1-0.2-1.8-0.4-2.5c-0.2-1.1-1-1.6-1.9-1.3
		c-1.1,0.3-0.4,1.2-0.4,1.8C148.4,55.5,148.4,56.2,148.6,56.9z"/>
	<path d="M144.7,59.8c0.5,0.2,1.2,0.1,1.8-0.1c0.7-0.2,0.5-0.8,0.2-1.3c-0.5-0.8,0.1-1.3,0.4-1.9c0.8-1.5-0.3-1.6-1.7-1.7
		c-1,0.5-0.8,2-1.4,3C143.8,58.2,143.8,59.5,144.7,59.8z"/>
	<path d="M132.8,133.8c-1.7,1-2.7,2.7-4.5,3.6c-0.6,0.3-0.1,1,0.5,1.1c1.5,0.3,5.2-2.5,5.3-4C134.1,133.5,133.7,133.2,132.8,133.8z"
		/>
	<path d="M95.5,123.1c-0.5,0.6-1.2,1.1-0.3,1.7c0.7,0.4,1.8,0.5,2.2-0.7c0.4-1.2,0.9-2.3,1.6-4C96.9,120.7,96.4,122,95.5,123.1z"/>
	<path d="M149.6,125.2c-0.1-0.9-0.5-1.5-1.4-1.6c-0.8-0.1-1.5,0-1.5,1c0,0.9,0.6,1.4,1.6,1.4C148.8,125.9,149.5,126,149.6,125.2z"/>
	<path d="M113.1,128.5c-0.3,0.1-0.6,0-0.7,0.2c-0.7,1-2.9,0.5-2.6,2.1c0.3,1.4,2,0,2.9,0.7C112.7,130.4,113.8,129.6,113.1,128.5z"/>
	<path d="M112.7,131.4L112.7,131.4L112.7,131.4L112.7,131.4L112.7,131.4z"/>
	<path d="M146.5,61c-1-0.4-1.5,0.5-2.4,1.4c1.1,0,1.7,1,2.5-0.1C147,61.9,147.1,61.2,146.5,61z"/>
	<path d="M158.5,160.7c1.1-0.4,1.7-1.2,2.2-2.1C158.6,158.9,158.6,158.9,158.5,160.7z"/>
	<path d="M122,115.3c-0.1-0.1-0.2-0.1-0.4-0.2c-0.1,0.2-0.2,0.4-0.2,0.6l0.4,0.2C122,115.7,122.2,115.5,122,115.3z"/>
	<path d="M87.1,127.7c-0.6,0.6,0.2,1,0.6,1.3l0.8-0.6C88.3,127.8,87.9,127.1,87.1,127.7z"/>
	<path d="M154.2,92.9c-0.1-0.1-0.1-0.2-0.2-0.2c-0.1,0-0.1,0.1-0.2,0.1C153.9,92.9,154,93,154.2,92.9
		C154.1,93.1,154.1,93,154.2,92.9z"/>
	<polygon points="152.5,92.7 152.4,92.8 152.5,92.9 	"/>
	<path d="M160.8,158.5L160.8,158.5L160.8,158.5L160.8,158.5L160.8,158.5z"/>
	<path d="M162.3,75.5L162.3,75.5L162.3,75.5L162.3,75.5L162.3,75.5z"/>
	<path d="M162.3,77.5v-2.1C161.6,76.5,161.6,76.5,162.3,77.5z"/>
	<path d="M161.2,80L161.2,80l0.6,1.3l0,0L161.2,80L161.2,80z"/>
	<path d="M85.6,90.9c-1.8-1.7-2.5-0.7-3.5,1.6c2-1,4.1,0.9,5.5-1.6H85.6L85.6,90.9z"/>
</g>
</svg>
