<?xml version="1.0" encoding="utf-8"?>
<!-- Generator: Adobe Illustrator 23.1.1, SVG Export Plug-In . SVG Version: 6.00 Build 0)  -->
<svg version="1.1" id="Calque_1" xmlns="http://www.w3.org/2000/svg" xmlns:xlink="http://www.w3.org/1999/xlink" x="0px" y="0px"
	 viewBox="0 0 190.4 190.4" style="enable-background:new 0 0 190.4 190.4;" xml:space="preserve">
<style type="text/css">
	.st0{fill:#FFFFFF;}
</style>
<title>Plan de travail 4 copie</title>
<g id="Calque_4">
	<path class="st0" d="M97.3,40.1L97.3,40.1C97.2,40.1,97.2,40.1,97.3,40.1L97.3,40.1L97.3,40.1z"/>
	<path class="st0" d="M190,95.5c0.4-5.5,0.2-6.2-5.1-7.3c-1.7-0.4-2.3-1.1-2.1-2.7c0.2-2.9,0.5-5.9,0.7-8.8c0.6-9.1-0.6-17.6-6.4-25
		c-0.8-1.1-0.8-2-0.3-3.4c1.4-3.6,4.2-6.4,5.6-10c3.3-8.5,4.8-17.3,5.5-26.3c0.2-3,0.2-6.1-0.5-9.1c-0.4-1.7-1.3-3.2-3.2-3.1
		c-2,0.1-2.3,2.1-2.4,3.4c0,3.4-0.9,6.5-1.7,9.7c-2.3,8.8-5.6,17-11.9,23.8c-3.2,3.5-3.2,3.4-7.3,1.1c-13.7-7.7-28.3-10.4-43.8-7.4
		c-3.7,0.7-7.2,2.2-10.7,3.6c-3.5,1.3-6.6,3.4-9.3,6c1.1,0.2,2.2,0.2,3.2-0.5c0.3,2.4,1.3,1.7,2.3,0.5c1.7-2.2,3.7-4,6.3-5.3
		c2-1,4.2-1.4,6.5-1.2c0.7,0,1.2,0.1,1.7-0.3c1.3-0.9,2.3-0.8,3,0.8c0.7,1.5,1.8,1.5,2.7,0.4c1.2-1.5,2.2-1.3,3.1,0.2
		c1.1,1.9,3,3.1,4.8,4.1c4.2,2.3,8.7,4.2,12.8,6.5s8.1,5.3,9.8,10.2c0.1,0.3,0.2,0.6,0.1,0.8c-2.3,4.2,1.1,8,0.6,12.1
		c-0.5,4.3,0.7,8.7,2.2,12.8c1.1,3.1,0.8,6.5,2.3,9.6c0.8,1.7,1.7,3.3,3.1,4.2c1.9,1.3,3,2.7,3.1,5c0,1,0.8,1.4,1.7,1.1
		c0.9-0.3,1.5-0.1,2.1,0.6c1.1,1.2,1.9,1.1,2.1-0.7c0.1-0.8,0.1-1.8,1.1-2.5c1.5,1.8,3.7,3.4,1.5,6.2c-0.8,1.1-0.2,1.9,1.1,1.9
		c1.2,0,2.3,0,3.5,0c1.1,0,1.6-0.5,1.6-1.6c0-1.9,1.2-3.1,2.4-4.3c0.5-0.5,0.8-1,1.5-0.6c0.6,0.4,0.6,1.1,0.4,1.7
		c-0.7,1.9-1,3.9-2.4,5.4c1,0.9,1.7-0.3,2.7,0.2c-0.7,2-1.7,3.2-4,2.5c-1.6-0.5-2.5,0.1-2.9,1.7c-0.3,1.1-1,2.1-1.6,3
		c-2.1,3.4-1.6,5.4,2.1,6.9c0.5,0.2,0.9,0.6,1,1.1c-0.9,0.1-1.7,0.2-2.6,0.3c-2.2,0.4-3.5,2.6-2.4,4.5c0.7,1.3,0.5,2.3-0.2,3.2
		c-1.6,2.3-1.8,5.2-3.6,7.4c-0.1,0.1-0.2,0.3-0.2,0.5c0.7,4.4-2.1,7.7-3.7,11.4c-0.6,1.5-1.3,2.8-2.8,3.7c-1.2,0.7-0.9,2.2-1,3.5
		c3.6,0.6,3.7-4.6,7.7-4.3c-2.2,3.4-5.2,5.5-7.7,7.9c-1.3,1.3-2.5,2.8-4.5,3.1c-0.1-0.5,0-1.5-0.5-1.2c-1.1,0.7-2.7-1-3.3,0.9
		c-1.7,5.1-6.6,6.8-10.6,9.2c-1.4,0.8-3.7,0.3-5.5,0.1c-1.3-0.2-0.6-1.2-0.2-1.9c1.9-4,3.9-8,5.9-11.9c0.2-0.5,0.4-1,0.8-1.9
		c-2.4,1.2-3.2,3.1-4.3,4.9c-0.8,1.4-1.4,2.9-2.3,4.2c-2.4,3.7-5.6,4.7-9.7,3.3c-2.6-0.9-5-2.5-8-1.7c-0.6,0.2-1-0.4-1.5-0.8
		c-2.2-1.8-4.6-2.6-7.4-1.6c-3.7,1.3-6.4-0.5-6.2-4.4c0.1-1-1-3.1,0.9-3c1.6,0.1,0.9,2.2,0.7,3.2c-0.3,2.1,0.2,2.7,2.3,2.4
		c5.2-0.8,10.1,0.4,14.8,2.4c1.8,0.7,3.6,0.9,5.5,1.3c3.5,0.7,6.5-0.5,8.4-3.4c3.8-6,8.7-11,12.7-16.7c1.8-2.5,3.7-5,3.6-8.4
		c-0.2-5.5-3.3-7.9-8.5-6.1c-1.9,0.7-4.1,1.5-5.3,3c-5.3,6.4-12.9,7.8-20,10.3c-1.2,0.4-2.6,0.5-3.9,1.6c1.3,1,2.5,1.9,2.9,3.6
		c0.3,1.3,1.2,1.1,1.9,0.3c0.5-0.5,1-1.1,1.2-1.7c0.3-1.2,0.9-1.9,2.2-1.7c1.5,0.2,2.6,1.4,2.3,2.5c-0.9,3.7,1.6,3.9,4,4.4
		c0.3,0.1,0.5,0.2,0.7,0.3c0.1,0,0.1,0.1,0.3,0.4c-2.6,1.6-1.8,4.7-2.7,7.3c-1.3-0.6-1.2-1.5-1.1-2.5c0.2-1.1,0.3-2.1,0.3-3.2
		c0-0.6,0-1.4-0.8-1.4c-0.7,0-1.9-0.2-1.9,0.9c-0.1,1.4-1,1.8-2,2.2c-0.8,0.4-1.3,0.8-1.4,1.7c0,0.6,0.5,1.6-0.7,1.6
		c-0.8,0-1.4-0.4-1.7-1.2c-0.9-2.8-3.3-4.9-3.7-7.8c-0.2-2.1-2.7-2.5-2.9-5.1c-0.7,1.6-2,2.1-2.1,3.6c-0.2,1.7-1.7,1.2-2.7,1.3
		c-0.2,0-0.7-0.5-0.6-0.7c0-1,0.6,0.1,0.8-0.2c0.9-1.2,0.4-2-0.8-2.8c-1.4-1-2.8-2-2.9-4.2c-0.1-1.2,1-1.3,1-2.3
		c0.3,1.4,1.1,2,2.4,1.7s1.1-1.2,1.2-2.3c0.1-1.8,0.4-3.5,0.8-5.2c0.4-1.4,0.7-3,2.6-3.4c0.9-0.2,1.4-1,1.7-2
		c-0.8-0.6-1.3,0.4-2,0.2c-2.8,2.8-6.3,2.5-8.5-0.6c-0.6-0.9-1.1-1.8-1.7-2.7c-1.9-2-4.3-1.8-6.7-1.6c-2.5,0.2-4.7,0-6.4-2.1
		c-1.5-1.8-1.6-7.2-0.1-9c0.4-0.5,0.9-1,0.5-1.6c-0.4-0.7-1.2-0.6-1.7-0.3c-1,0.6-1.6,0.1-2.5-0.3c-1.7-0.9-2.7-0.1-3.2,1.7
		c-1,3.6,0.5,5.9,3.2,8.1c1.6,1.3,2.8,3.2,2.5,5.5l-0.8,0.6l2.5,2.3c-1.8,0.2-3.6,0.8-5.2,1.6c-0.4-1.9-1.4-3.6-0.2-5.4
		c0.8-1.2,0-2-0.7-2.5c-2.1-1.4-3.3-3.5-4.8-5.3c-1.9-2.3-1.3-5-0.8-7.7c0.1-0.5,0.4-1,0.6-1.5c0.4-1.1,0.5-2.6,1.7-2.8
		c1.4-0.3,1.7,1.2,2.4,2.1c0.9,1.2,2.3,0.9,3.4,0.8c3.8-0.5,7.1,0.9,10.4,2.5c0.8,0.4,1.7,0.6,1.5,1.9c-1.1,0.5-3.4-1.6-3.5,1.4
		c0,1.1,0.1,1.6,1.3,1.1c1.8-0.7,3.9-0.5,5.4-1.9c0.5-0.4,1.1-0.6,1.9-0.1c-0.3,0.8-0.7,1.5-1.3,2.1c-0.6,0.6-0.4,1.6,0.2,2.1
		c0.6,0.4,1.1-0.2,1.5-0.8c1.7-2.5,3.9-4.8,4.9-7.5c1.1-3,1.3-6.4,1.6-9.7c0.3-3.1,0.4-6.2,0.3-9.3c-0.1-2.3-1.9-4.2-2-6.7
		c0-1.3,0.2-2.8-0.5-4.2c-1.5,0.7-1.3,2.2-1.9,3.2c-0.5,0.3-1,0.1-1.2-0.2c-2.1-2.2-2.1-2.1-3.8,0.6c-1.3,2.1-2.7,4.1-4.2,6.1
		c-0.7,0.8-1.6,1.4-2.6,1.8c-4.8,1.5-9.7,2.3-14.7,1.5c-1.9-0.3-2.3-1.3-1.5-2.8c1.9-3.4,2.2-7.1,2.1-10.9c0-0.9,0.2-1.8,0.7-2.5
		c0.1-0.2,1.6-1.5-0.5-1.3c-0.5,0.1-0.2-1.4,0.3-1.6c1-0.4,2.4-0.4,1.1-2c2-1.5,1.3-3.7,1.4-5.6c0.1-1.9,0.8-3.8,1.9-5.4
		c1.4-2,1.9-4.1,2.7-6.3c0-0.1,0-0.2,0-0.3c3.4-1.5,2.2-5,3.3-7.5c0.7-1.8,0.2-4,2.2-5.2c1.6-0.8,3.4-1.5,4-3.4
		c-1.7,0.7-3.3,1.5-4.3,3.1c-0.6,0.3-1.3,0.6-1.8,1c-1.4,1.4-2.8,1.2-4.3,0.2c-4.5-2.8-8.6-6-12.3-9.6c-2.3-2.1-4.7-4.2-6.5-6.7
		c-5.1-7-10-14-13.8-21.8c-0.5-1-0.9-2.4-2.5-1.9c-1.3,0.5-1.3,1.8-1.2,3c0.3,2.7,1.1,5.2,1.9,7.8c3.1,9.4,7.2,18.1,12.9,26.2
		C69,47,73.6,51.9,78.4,56.6c0.9,0.9,1.8,1.8,1.3,3.2c-2.4,7.1-2,14.1-1,21.4c0.5,3.3,0.4,6.6-1.3,9.7c-0.6,1-1.2,1.8-2.7,1.7
		c-2-0.1-3.2,1.1-3.2,3.1c0,3.9-0.4,8,1.6,11.6c2,3.6,2,7.3,1.8,11.2c-0.2,3.5-1.2,6.9-0.4,10.4c0.6,3,2.2,4.3,4.9,4.3
		c3.7,0,3.9,0,3.7,3.8c-0.3,5,1,9.3,3.8,13.3c1.9,2.7,2.9,5.9,3.9,9c2.1,6.1,3.1,12.3,4.3,18.7c1.7,9.1,5.1,11.8,13.6,12.4
		c3.9,0.3,7.9-0.1,11.8,0c5.4,0.2,9.7-2.1,13.6-5.2c4.3-3.4,8.4-7.1,12.8-10.2c8.4-5.9,16.8-11.7,24.4-18.5c3-2.7,4.6-6.1,4.6-10.2
		c0-2.3-0.2-4.6-0.4-7c-0.1-1.8,0.2-3.4,1.6-4.6c1.3-1.1,2.6-2.1,4-3.1c5.3-3.4,6.1-5.6,4.3-11.6c-1.1-3.8-1.1-7.5,0.7-11
		C188.4,104.6,189.6,100.2,190,95.5z M154.8,52.1c-2-1.7-3.8-3.8-5.1-6.2l0,0c0.9,0.7,1.8,1.4,2.8,2c0.7,0.5,1.4,1.4,2.4,0.7
		C154.3,49.8,155.5,50.9,154.8,52.1L154.8,52.1z M156.4,71.7c-0.3-2-1.4-4-0.3-6.1C156.8,67.6,156.7,69.7,156.4,71.7L156.4,71.7z
		 M155.7,59.7c0.4,0.9,0.6,1.8,0.1,2.9C154.8,61.5,155.5,60.6,155.7,59.7L155.7,59.7z M155,48.6c0.4-1.4,0.8-2.9,3.2-1.8
		C156.7,47.1,157.5,50.4,155,48.6z M159.8,87.7c1.4,1.3,3.2,2.2,3.6,4.4C161.1,91.6,160.2,89.9,159.8,87.7L159.8,87.7z M165.8,87.5
		c-3.7-0.7-7.4-7.2-7.3-13c1.2,1,0.7,2.7,1.9,3.4c0.9-0.6-0.1-1.3,0.1-1.9c0.4-0.9,0.8-2.3,2-0.6c2.9,1.7,1.6,4.6,1.8,6.9
		c0.1,1.2-0.2,2.2,0.8,3.1C165.7,85.8,166,86.7,165.8,87.5L165.8,87.5z M134.3,158.2c1.2,0.9,0.8,1.7,0,2.6V158.2z M132.7,146
		c0.6,0.5,0.8,0.6,0.8,0.7c0.2,1.3,0.7,2.6-0.2,3.9c-0.2,0.2-0.5,0.3-0.8,0.1c-0.1,0-0.1-0.1-0.1-0.2C131.5,149,132,147.6,132.7,146
		L132.7,146z M112.8,154.6c0.1-0.5,0.6-0.9,1.2-0.9c0.4,0,0.6,0.3,0.4,0.7c-0.2,0.5-0.4,1-0.6,1C112.8,155.3,112.7,155,112.8,154.6z
		 M112,158.7c0.1-1.3,1-1.5,2.3-1.1c-0.7,0.8-0.1,2.3-1.7,2.4C112.2,160,112,159.3,112,158.7z M95.6,97.3c0.6-0.4,0.9-0.6,1.3-0.9
		c3-1.8,3.5-1.6,4.7,1.7c0.4,1,0.7,1.9,1.7,2.6c1.4,1.1,1.2,2.5-0.3,3.5c-2.3,1.4-4.5,2.8-7.7,3.1C97.9,104,100.4,100.7,95.6,97.3z
		 M83.3,99.1c1.4,1.6,0.6,3.6,1.2,5.3C82.6,103,82.9,101,83.3,99.1z M77,47.6c-1.5-0.8-1-2.7-2.2-3.7c-4.5-3.8-8.4-8.2-10.8-13.8
		c1.2-0.2,2.2,0.7,2.3,1.2c1,3,4.2,3.6,5.9,5.8c0.8,1,2.1,1.6,1.9,3.3c-0.1,0.9,1,1.3,1.6,1.7c2.7,1.8,4.8,4.3,7.6,6.1
		c1.4,1,2.1,3.1,4.6,2.9c-1.4,1.7-2.2,3.6-4.2,5.1c0.2-2.2,0.2-3.5-1.8-4.7C80.2,50.5,78.9,48.6,77,47.6z M76.9,95.7
		c4.4,1.6,3.1,6.1,4.8,9c-1.3-0.1-1.4-0.1-1.7-1.3c-0.6-2.2-1.5-4.3-3.1-5.9C76.2,96.8,76.5,96.3,76.9,95.7z M103.1,148.7
		c1.2,0.6,2.1,1.5,2.8,2.6c0.4,0.7,0.9,1.4,0.5,2.2c-0.3,0.6-0.8,0.7-1.4,0.5c-0.9-0.3-2-0.3-2.3-1.5
		C102.5,151.3,102.3,150.1,103.1,148.7L103.1,148.7z M101.5,159.8c0-0.2,0.2-0.4,0.4-0.6c0.6,1.5,1.3,3.3-0.7,3.9
		c-1.9,0.5-3.4-0.2-3.9-2.4c-0.3-1.5-0.5-3-1.3-4.3c-0.3-0.5-0.5-1,0-1.5c0.6-0.5,1.1,0,1.7,0.3c1,0.6,1.4,1.6,1.5,2.7
		c0.1,0.7,0.2,1.4,0.3,2.1c0.2,0.7,0.3,1.6,1.1,1.6C101.7,161.4,101.4,160.4,101.5,159.8L101.5,159.8z M100.2,149.8
		c-1.2-0.5-2-1.4-3.1-1.8C98.5,147.8,100.5,146.4,100.2,149.8L100.2,149.8z M88.7,150c-2.9-3-4.7-6.3-4.3-11.4
		c1.4,2.9,3,4.9,3.5,7.4c0.2,1.2,0.6,2.2,1.8,2.7c0.1,0.8,1.2,0.3,1.3,1.1C90.3,150.5,89.5,150.7,88.7,150L88.7,150z M89.8,148.7
		c-0.5-2.7-1.1-5.3-1.6-8c-0.3-1.7-0.7-3.4,1.3-5.1c0,3.7,2.2,6.3,2.6,9.4C92.2,146.9,91.8,148.3,89.8,148.7L89.8,148.7z
		 M93.5,129.7c1-0.3,1.4,0.7,1.8,1.6c1,2.7,1.8,5.4,3.3,7.9c0.6,0.9,0.2,1.9-0.7,2.3c-1.2,0.6-1.1,1.4-0.6,2.6
		c-2.6-0.6-3.5-1.9-3.3-4.1c0.3-2.7-0.5-5.3-1.4-7.9C92.3,130.9,92.4,130,93.5,129.7z M95,167.1c-1.4-1.2-1.6-2.9-1.7-4.6
		c-0.1-0.7,0.2-1.6,1.2-1.4c1.7,0.4,0,0.9-0.1,1.4c-0.1,1.4,0.9,3,3.3,4.7C96.5,168.4,95.7,167.8,95,167.1z M99,173.6
		c-2.2-0.9-1.7-3.1-2.5-4.6C97.6,170.4,99.5,171.3,99,173.6z M118.9,185.9c-3.4-1.3-7.1-1.7-10.3-3.4c-2.6-1.4-4.2,1-6.1,1.9
		c-0.9,0.4-1.7,1.6-2.8,0.7s-2.4-1.7-1.7-3.5c0.2-0.4,0.1-0.9,0.2-1.3c0.3-1.1-0.8-2.9,0.4-3.1c1.4-0.2,3.1,0.6,4.2,1.8
		c1.7,1.8,3,1.6,3.9-0.7c0.8-1.8,1.5-3.6,2.2-5.4c1-2.7,2.9-2.7,4.9-2.2c2.9,0.7,5.8,1.3,8.5,2.7l0,0c0.4,1,1,0.8,1.9,0.8
		c1.4,0,2.8-0.9,4.4,0.5c-1.5,0.4-2.4,1.3-2.6,2.9c-0.2,1.7-1.8,1.8-2.9,1.7c-2.6-0.3-5.3-0.7-7.4-2.7c-0.8-0.8-1.6-1.4-2.8-1.5
		c-0.8-0.1-1.7-0.4-2.2,0.5c-0.4,0.9,0.2,1.5,0.7,2.1c4,5,10.8,6.6,16.8,3.9c1.6-0.7,3-1.8,5-1.6C130.9,184,125.9,188.4,118.9,185.9
		L118.9,185.9z M179,116.2c0.4,0.5,1.2,0.8,1,1.6c-0.1,0.2-0.8,0.5-1.1,0.4C177.6,117.5,179,116.9,179,116.2z M177.9,127.3
		c-0.6,0-1.1,0-1.1-0.7c0-0.8,0.6-1,1.3-0.9c0.5,0,1.2,0,1.2,0.7C179.1,127.1,178.5,127.2,177.9,127.3z M180.4,121.8
		c-0.1,0.1-0.5,0.3-0.6,0.2c-0.2-0.2-0.2-0.4-0.2-0.6c0-0.3,0.2-0.4,0.6-0.3C180.4,121.2,180.5,121.5,180.4,121.8L180.4,121.8
		L180.4,121.8z M185.5,92.8c-4.4-0.4-7,2.2-9.6,5.9c0.1-4.3,3.1-6,5.3-8.1c1.3-1.2,3.1-0.1,4.6-0.5c0.5-0.1,0.7,0.6,0.6,1.2
		C186.4,92.1,186.3,92.9,185.5,92.8L185.5,92.8z"/>
	<path class="st0" d="M116.2,91.4c0.2,0.5,1.9,0,0.9,1.3c-0.9,1.2-0.5,2.5-0.3,3.9c-0.3,0.2-0.6,0.5-0.3,0.8c0.4,0.3,0.6,0,0.7-0.4
		c0.8,2.9-0.2,6,1.7,8.9c-0.8,0.4-2.2-0.4-2.2,1.1c0,0.5-0.5,1.2,0.2,1.4c2.6,0.9,3.9,3.3,5.2,5.2c1.5,2.1,2.5,1.8,4.2,1
		c4-1.8,7.8-3.9,12-4.7c7-1.2,13.7-2.9,20.4-5.5c0.4-0.2,0.9-0.3,0.9-0.8c0-0.5-0.4-0.7-0.8-0.9c-1.4-0.8-2.5-0.6-3.6,0.6
		c-0.8,0.9-2,1.4-3.1,0.8c-1.2-0.7-0.3-1.8-0.1-2.7c0.4-1.7,0.7-3.4,2.1-4.7c1.4-1.3,0.5-3.3-1.3-3.1c-3.9,0.3-7.6-0.5-11.5-0.3
		c-10.2,0.5-19.7-0.7-26.7-9.3c-0.9-1.1-2.2-2.2-4.4-0.7C113.8,84.9,115.1,88.1,116.2,91.4z M146.2,99.3c0.2-0.8,0.6-1.3,1.4-1.2
		c1,0.1,1.3,0.9,1.2,1.8c-0.3,2.3-1.2,4.1-3.9,5.2C145.4,102.8,145.7,101,146.2,99.3L146.2,99.3z M133,104.7
		c2.2-2.2,2.5-4.8,1.7-7.9c2.2,0.1,3.6,1.4,5.4,1.7c1.6,0.3,1.5,4.6-0.1,5.7c-1.8,1.3-4,1.9-6.2,2.1
		C132.4,106.5,132.2,105.5,133,104.7L133,104.7z"/>
	<path class="st0" d="M153.6,145.1c-1.9,2.4-3.2,5.5-4.5,8.5c-1,2.3-3.2,4-4,7.1c9.2-5.3,15.5-22.2,11.1-28.9
		C155.7,136.4,156.8,141,153.6,145.1z"/>
	<path class="st0" d="M153.3,125.9c-0.9,0.5-1.9,0.8-2.9,0.8c-1.9,0.1-3.9,0.3-5.8,0.6c-3.3,0.5-5.3,0.1-7.1-2.7
		c-1-1.5-1.8-3.1-2.8-4.6c-1-1.6-2.2-2.9-4.7-3.3c2.5,2.8,3.5,5.7,4.7,8.6c0.9,2.1,2.7,3.3,4.9,3.7c1.9,0.3,3.7,0.2,5.6,0
		c3.7-0.5,7.3-1.4,10.7,1.2L153.3,125.9z"/>
	<path class="st0" d="M131.9,124.8c-0.2-3.7-2.8-6.6-5.9-6.5c0.2,1.5,0.6,2.7,2,3.8c1.6,1.2,2.1,3.1,0.9,5c-1.2,1.9-2.4,1.2-4,0.2
		c-2.1-1.5-4.9-0.7-7.2,2.2c3.4-0.7,6.3-0.2,9.1-0.2C129.7,129.4,132,127.2,131.9,124.8z"/>
	<path class="st0" d="M109.3,131.6c-4-3.1-3.6-7.3-3.2-11.5c-2.2,1-2,3.3-3.1,3.8c-3.2,1.4-1.3,2.9-0.5,4.5
		C104.5,129.6,105.8,132,109.3,131.6z"/>
	<path class="st0" d="M102.6,128.4L102.6,128.4L102.6,128.4L102.6,128.4L102.6,128.4z"/>
	<path class="st0" d="M111.1,145.9c4-0.2,7.3-1.1,11-2.6C118.4,140.6,115.5,141.4,111.1,145.9z"/>
	<path class="st0" d="M167.4,120.7c2-0.3,2.6-1.6,2.7-3.7c0,0.1,0-0.2-0.1-0.4c-0.4-0.7-1.3-1.1-1.8-0.6c-1.1,1-2.5,1.9-2.8,3.4
		C165.4,120,166.3,120.9,167.4,120.7z"/>
	<path class="st0" d="M148.7,56.8c0.1,0.8,0.3,1.8,1.2,1.8c1.1,0,1-1.3,1.3-1.9c-0.1-1-0.2-1.8-0.4-2.5c-0.2-1.1-1-1.6-1.9-1.3
		c-1.1,0.3-0.4,1.2-0.4,1.8C148.5,55.4,148.5,56.1,148.7,56.8z"/>
	<path class="st0" d="M144.8,59.7c0.5,0.2,1.2,0.1,1.8-0.1c0.7-0.2,0.5-0.8,0.2-1.3c-0.5-0.8,0.1-1.3,0.4-1.9
		c0.8-1.5-0.3-1.6-1.7-1.7c-1,0.5-0.8,2-1.4,3C143.9,58.1,143.9,59.4,144.8,59.7z"/>
	<path class="st0" d="M132.8,133.9c-1.7,1-2.7,2.7-4.5,3.6c-0.6,0.3-0.1,1,0.5,1.1c1.5,0.3,5.2-2.5,5.3-4
		C134.1,133.6,133.7,133.3,132.8,133.9z"/>
	<path class="st0" d="M95.4,123.2c-0.5,0.6-1.2,1.1-0.3,1.7c0.7,0.4,1.8,0.5,2.2-0.7s0.9-2.3,1.6-4
		C96.8,120.8,96.3,122.1,95.4,123.2z"/>
	<path class="st0" d="M149.7,125.3c-0.1-0.9-0.5-1.5-1.4-1.6c-0.8-0.1-1.5,0-1.5,1c0,0.9,0.6,1.4,1.6,1.4
		C148.9,126.1,149.6,126.2,149.7,125.3z"/>
	<path class="st0" d="M113,128.7c-0.3,0.1-0.6,0-0.7,0.2c-0.7,1-2.9,0.5-2.6,2.1c0.3,1.4,2,0,2.9,0.7
		C112.6,130.5,113.7,129.8,113,128.7z"/>
	<path class="st0" d="M112.6,131.5L112.6,131.5L112.6,131.5L112.6,131.5L112.6,131.5z"/>
	<path class="st0" d="M146.6,60.8c-1-0.4-1.5,0.5-2.4,1.4c1.1,0,1.7,1,2.5-0.1C147.1,61.7,147.2,61,146.6,60.8z"/>
	<path class="st0" d="M158.6,160.9c1.1-0.4,1.7-1.2,2.2-2.1C158.7,159.1,158.7,159.1,158.6,160.9z"/>
	<path class="st0" d="M122,115.4c-0.1-0.1-0.2-0.1-0.4-0.2c-0.1,0.2-0.2,0.4-0.2,0.6l0.4,0.2C122,115.8,122.2,115.6,122,115.4z"/>
	<path class="st0" d="M86.9,127.9c-0.6,0.6,0.2,1,0.6,1.3l0.8-0.6C88.1,128,87.7,127.3,86.9,127.9z"/>
	<path class="st0" d="M154.4,92.9c-0.1-0.1-0.1-0.2-0.2-0.2c-0.1,0-0.1,0.1-0.2,0.1C154.1,92.9,154.2,93,154.4,92.9
		C154.3,93.1,154.3,93,154.4,92.9z"/>
	<polygon class="st0" points="152.7,92.7 152.6,92.8 152.7,92.9 	"/>
	<path class="st0" d="M160.9,158.7L160.9,158.7L160.9,158.7L160.9,158.7L160.9,158.7z"/>
	<path class="st0" d="M162.4,75.4L162.4,75.4L162.4,75.4L162.4,75.4L162.4,75.4z"/>
	<path class="st0" d="M162.4,77.5v-2.1C161.7,76.4,161.7,76.4,162.4,77.5z"/>
	<path class="st0" d="M161.3,80L161.3,80l0.6,1.3l0,0L161.3,80L161.3,80z"/>
	<path class="st0" d="M85.4,90.9c-1.8-1.7-2.5-0.7-3.5,1.6c2-1,4.1,0.9,5.5-1.6H85.4L85.4,90.9z"/>
</g>
</svg>
