<?xml version="1.0" encoding="utf-8"?>
<!-- Generator: Adobe Illustrator 23.0.6, SVG Export Plug-In . SVG Version: 6.00 Build 0)  -->
<svg version="1.1" id="Calque_1" xmlns="http://www.w3.org/2000/svg" xmlns:xlink="http://www.w3.org/1999/xlink" x="0px" y="0px"
	 viewBox="0 0 908.1 826.2" style="enable-background:new 0 0 908.1 826.2;" xml:space="preserve">
<g>
	<path d="M453.3,202c-137.9,0-249.7,111.8-249.7,249.7s111.8,249.7,249.7,249.7S703,589.6,703,451.7S591.2,202,453.3,202z
		 M453.3,636.3c-102,0-184.7-82.7-184.7-184.7S351.3,267,453.3,267S638,349.7,638,451.7S555.2,636.3,453.3,636.3z"/>
	<path d="M790.7,778.1c-76.9,57.5-218.6,77.8-334.6-22c-61.3,46.4-128.8,75.1-208,69.4c-45.9-3.4-100.9-22.8-133.6-49.4
		c83.6,29.6,158,20.2,219.3-42.3c60.9-62.1,70.2-136,39.4-217.1c8.3-4.5,16.7-8.4,24.3-13.7c7.8-5.4,13.4-5,21.5,0.6
		c23.5,16.5,47.7,17.1,69.5,0.2c10.4-8.1,17.7-7.7,27.3-0.9c6.1,4.4,12.9,7.7,19.8,11.7c-32,82.6-23.7,158.9,40.5,222.1
		C637.2,796.8,710.7,807.2,790.7,778.1z"/>
	<path d="M603.1,277.6c30-29,41.7-66.4,44.6-106.1c5.1-70.1-22.4-126.6-76.1-171.5c56.6,26.1,98,67.9,125,123.7
		c27,55.7,34,114.1,18,175.3c77.8,25.5,135.3,73.1,169.6,146.8c18.8,40.4,26.4,82.9,23.3,127.2C880.9,399.1,659,343.3,551,488.7
		c-9.7-5.4-19.9-10.4-29.5-16.5c-2.8-1.8-5.7-6.5-5.4-9.5c4-37.2-13.9-59.6-48-71.3c0-13.3,0-25.9,0-40.1
		c36.8-4.8,71.7-15.3,101-38.7c12.8-10.3,23.1-23.5,34.6-35.4C603.6,277,603.1,277.6,603.1,277.6z"/>
	<path d="M190.8,303.7c-22.1-133.9,24.3-234.6,141.1-302c-61.6,57.6-88.2,127.2-63.7,209.6c24.4,82.5,84.2,126.6,170.1,139.8
		c0,11,0.7,21.9-0.4,32.6c-0.4,4.1-3.9,9.6-7.5,11.3c-28.4,13.8-41.6,35.5-38,67.5c0.5,4.2-3.4,10.4-7.1,13.2
		c-7.9,5.7-17,9.8-26.6,15.1c-52.8-69-121.5-100.9-207.4-80.7C66.2,430,18.8,488.4,0.5,572.4c-3.4-62,11.9-118.7,47.6-169
		C83.3,353.3,129.3,317.6,190.8,303.7z"/>
</g>
</svg>
